<svg width="124" height="37" viewBox="0 0 124 37" fill="none" xmlns="http://www.w3.org/2000/svg">
<g clip-path="url(#clip0_1_4680)">
<path d="M119.588 37H4.34367C1.9491 37 0 35.0316 0 32.622V4.37155C0 1.961 1.9491 0 4.34367 0H119.588C121.982 0 124 1.961 124 4.37155V32.622C124 35.0316 121.982 37 119.588 37Z" fill="#A6A6A6"/>
<path d="M123.111 32.6229C123.111 34.5802 121.537 36.1656 119.589 36.1656H4.3437C2.39736 36.1656 0.817505 34.5802 0.817505 32.6229V4.37062C0.817505 2.41424 2.39736 0.823242 4.3437 0.823242H119.588C121.537 0.823242 123.11 2.41424 123.11 4.37062L123.111 32.6229Z" fill="black"/>
<path d="M27.6732 18.3002C27.6465 15.319 30.0971 13.8686 30.2092 13.801C28.8213 11.7633 26.6701 11.4848 25.9142 11.4626C24.1075 11.2712 22.3549 12.5514 21.4346 12.5514C20.4959 12.5514 19.0786 11.4811 17.5511 11.5126C15.5855 11.5431 13.7466 12.6892 12.738 14.4689C10.6567 18.0977 12.209 23.4303 14.2031 26.3635C15.2006 27.8 16.3662 29.4039 17.8919 29.3475C19.3844 29.2855 19.942 28.3892 21.7432 28.3892C23.5279 28.3892 24.0514 29.3475 25.6074 29.3114C27.2093 29.2855 28.2178 27.8684 29.1804 26.419C30.3332 24.7725 30.7961 23.1509 30.8145 23.0677C30.7768 23.0547 27.7035 21.8735 27.6732 18.3002Z" fill="white"/>
<path d="M24.7338 9.53306C25.5366 8.52203 26.0859 7.14656 25.9334 5.75073C24.7715 5.80253 23.3184 6.56011 22.4816 7.54893C21.7413 8.42028 21.08 9.84848 21.2508 11.1916C22.556 11.2896 23.8961 10.5284 24.7338 9.53306Z" fill="white"/>
<path d="M49.2739 29.1412H47.1879L46.0453 25.5254H42.0736L40.9852 29.1412H38.9543L42.8893 16.8313H45.3197L49.2739 29.1412ZM45.7009 24.0084L44.6675 20.794C44.5582 20.4656 44.3534 19.6923 44.0512 18.475H44.0145C43.8941 18.9986 43.7003 19.7719 43.434 20.794L42.419 24.0084H45.7009Z" fill="white"/>
<path d="M59.3932 24.5939C59.3932 26.1035 58.9881 27.2967 58.178 28.1727C57.4524 28.9525 56.5513 29.3419 55.4757 29.3419C54.3147 29.3419 53.4807 28.9219 52.9727 28.082H52.936V32.7579H50.9777V23.1869C50.9777 22.2379 50.9529 21.2639 50.9052 20.2649H52.6274L52.7367 21.6718H52.7734C53.4265 20.6117 54.4176 20.0826 55.7476 20.0826C56.7873 20.0826 57.6553 20.4961 58.3497 21.324C59.046 22.1528 59.3932 23.2424 59.3932 24.5939ZM57.3982 24.666C57.3982 23.8021 57.2053 23.0898 56.8177 22.5293C56.3942 21.9447 55.8257 21.6524 55.1129 21.6524C54.6297 21.6524 54.1907 21.8152 53.7985 22.1361C53.4054 22.4599 53.1482 22.8826 53.0278 23.4062C52.9672 23.6504 52.9369 23.8502 52.9369 24.0074V25.4874C52.9369 26.1331 53.1335 26.6779 53.5266 27.1228C53.9197 27.5677 54.4304 27.7897 55.0587 27.7897C55.7963 27.7897 56.3703 27.503 56.7809 26.9313C57.1924 26.3588 57.3982 25.604 57.3982 24.666Z" fill="white"/>
<path d="M69.5309 24.5939C69.5309 26.1035 69.1259 27.2967 68.3148 28.1727C67.5901 28.9525 66.689 29.3419 65.6135 29.3419C64.4524 29.3419 63.6184 28.9219 63.1114 28.082H63.0747V32.7579H61.1164V23.1869C61.1164 22.2379 61.0916 21.2639 61.0438 20.2649H62.766L62.8754 21.6718H62.9121C63.5642 20.6117 64.5553 20.0826 65.8863 20.0826C66.9251 20.0826 67.7931 20.4961 68.4893 21.324C69.1828 22.1528 69.5309 23.2424 69.5309 24.5939ZM67.5359 24.666C67.5359 23.8021 67.3421 23.0898 66.9545 22.5293C66.531 21.9447 65.9643 21.6524 65.2506 21.6524C64.7666 21.6524 64.3284 21.8152 63.9353 22.1361C63.5422 22.4599 63.2859 22.8826 63.1656 23.4062C63.1059 23.6504 63.0747 23.8502 63.0747 24.0074V25.4874C63.0747 26.1331 63.2712 26.6779 63.6625 27.1228C64.0556 27.5668 64.5663 27.7897 65.1964 27.7897C65.934 27.7897 66.5081 27.503 66.9187 26.9313C67.3302 26.3588 67.5359 25.604 67.5359 24.666Z" fill="white"/>
<path d="M80.8654 25.6891C80.8654 26.7362 80.5044 27.5881 79.7797 28.2458C78.9834 28.9645 77.8747 29.3234 76.4501 29.3234C75.1348 29.3234 74.0803 29.0681 73.2821 28.5566L73.7359 26.9128C74.5956 27.4364 75.5389 27.6991 76.5667 27.6991C77.3043 27.6991 77.8784 27.5307 78.2908 27.1959C78.7014 26.861 78.9062 26.4115 78.9062 25.8509C78.9062 25.3514 78.7372 24.9306 78.3983 24.5892C78.0612 24.2479 77.4981 23.9306 76.7119 23.6374C74.5717 22.8336 73.5026 21.6561 73.5026 20.1076C73.5026 19.0957 73.8773 18.2659 74.6277 17.6203C75.3754 16.9737 76.3729 16.6509 77.6203 16.6509C78.7326 16.6509 79.6566 16.8461 80.3942 17.2355L79.9046 18.8431C79.2157 18.4657 78.4368 18.277 77.5652 18.277C76.8763 18.277 76.338 18.4482 75.9522 18.7886C75.6262 19.0929 75.4627 19.4638 75.4627 19.9032C75.4627 20.3897 75.6491 20.7921 76.0239 21.1085C76.35 21.4008 76.9424 21.7171 77.8021 22.0584C78.8538 22.4849 79.6263 22.9834 80.1232 23.5551C80.6183 24.1249 80.8654 24.8381 80.8654 25.6891Z" fill="white"/>
<path d="M87.3401 21.7449H85.1816V26.0545C85.1816 27.1506 85.5619 27.6982 86.3242 27.6982C86.6742 27.6982 86.9644 27.6677 87.1941 27.6066L87.2483 29.1042C86.8625 29.2494 86.3545 29.3225 85.7254 29.3225C84.952 29.3225 84.3476 29.0848 83.9113 28.6102C83.4768 28.1348 83.2582 27.3375 83.2582 26.2173V21.743H81.9723V20.263H83.2582V18.6378L85.1816 18.0532V20.263H87.3401V21.7449Z" fill="white"/>
<path d="M97.0791 24.6299C97.0791 25.9942 96.6915 27.1144 95.9181 27.9904C95.107 28.8923 94.0305 29.3418 92.6886 29.3418C91.3953 29.3418 90.3656 28.9098 89.5977 28.0459C88.8299 27.1819 88.4459 26.0914 88.4459 24.7769C88.4459 23.4015 88.8409 22.2748 89.6336 21.3988C90.4244 20.5219 91.4917 20.0835 92.8337 20.0835C94.127 20.0835 95.1676 20.5155 95.953 21.3803C96.7043 22.2193 97.0791 23.3025 97.0791 24.6299ZM95.0473 24.6937C95.0473 23.8751 94.8737 23.173 94.5219 22.5875C94.1113 21.8789 93.5244 21.5256 92.7639 21.5256C91.9767 21.5256 91.3788 21.8798 90.9682 22.5875C90.6164 23.1739 90.4428 23.8871 90.4428 24.7307C90.4428 25.5493 90.6164 26.2514 90.9682 26.836C91.3916 27.5445 91.9831 27.8979 92.7464 27.8979C93.4941 27.8979 94.081 27.5371 94.5045 26.8175C94.8654 26.2209 95.0473 25.5114 95.0473 24.6937Z" fill="white"/>
<path d="M103.444 21.9992C103.251 21.9632 103.044 21.9447 102.827 21.9447C102.138 21.9447 101.606 22.2064 101.231 22.7309C100.905 23.1934 100.741 23.778 100.741 24.4838V29.1412H98.7839L98.8022 23.0602C98.8022 22.0372 98.7774 21.1057 98.7288 20.2658H100.434L100.506 21.9641H100.56C100.767 21.3804 101.093 20.9105 101.539 20.5581C101.976 20.2408 102.447 20.0826 102.955 20.0826C103.136 20.0826 103.299 20.0956 103.444 20.1187V21.9992Z" fill="white"/>
<path d="M112.203 24.283C112.203 24.6363 112.18 24.9342 112.131 25.1775H106.256C106.279 26.0544 106.563 26.725 107.108 27.1875C107.603 27.601 108.244 27.8082 109.03 27.8082C109.9 27.8082 110.693 27.6685 111.407 27.3882L111.714 28.7572C110.88 29.1235 109.895 29.3057 108.759 29.3057C107.392 29.3057 106.319 28.9006 105.539 28.0912C104.76 27.2818 104.369 26.195 104.369 24.8315C104.369 23.493 104.732 22.3784 105.459 21.4895C106.219 20.5404 107.247 20.0659 108.54 20.0659C109.811 20.0659 110.772 20.5404 111.425 21.4895C111.943 22.2434 112.203 23.1758 112.203 24.283ZM110.335 23.7715C110.348 23.1869 110.22 22.6818 109.955 22.2554C109.616 21.7069 109.095 21.4331 108.394 21.4331C107.754 21.4331 107.233 21.7004 106.836 22.2369C106.51 22.6633 106.316 23.1748 106.256 23.7705L110.335 23.7715Z" fill="white"/>
<path d="M45.0533 9.25829C45.0533 10.347 44.7291 11.1666 44.0815 11.7169C43.4817 12.2248 42.6293 12.4791 41.5253 12.4791C40.9778 12.4791 40.5094 12.4551 40.1172 12.407V6.45832C40.6288 6.37507 41.1799 6.33252 41.7751 6.33252C42.8268 6.33252 43.6195 6.56284 44.1541 7.02349C44.7529 7.54427 45.0533 8.28889 45.0533 9.25829ZM44.0383 9.28512C44.0383 8.57934 43.8528 8.03822 43.4817 7.66082C43.1106 7.28434 42.5687 7.09564 41.855 7.09564C41.5519 7.09564 41.2938 7.11599 41.0798 7.15854V11.6809C41.1983 11.6994 41.4151 11.7077 41.7301 11.7077C42.4668 11.7077 43.0353 11.5014 43.4358 11.0889C43.8363 10.6763 44.0383 10.0751 44.0383 9.28512Z" fill="white"/>
<path d="M50.4349 10.2093C50.4349 10.8799 50.2448 11.4293 49.8645 11.8604C49.4659 12.3035 48.9377 12.5245 48.2782 12.5245C47.6426 12.5245 47.1365 12.3127 46.759 11.8872C46.3824 11.4626 46.1941 10.9271 46.1941 10.2814C46.1941 9.60617 46.3879 9.05209 46.7773 8.62197C47.1668 8.19184 47.6904 7.97632 48.3499 7.97632C48.9855 7.97632 49.4962 8.18814 49.8829 8.61272C50.2503 9.02527 50.4349 9.55807 50.4349 10.2093ZM49.4365 10.2407C49.4365 9.83834 49.3501 9.49332 49.1784 9.20564C48.9763 8.85784 48.6888 8.68394 48.315 8.68394C47.9283 8.68394 47.6343 8.85784 47.4323 9.20564C47.2596 9.49332 47.1742 9.84389 47.1742 10.2583C47.1742 10.6607 47.2605 11.0057 47.4323 11.2934C47.6408 11.6412 47.931 11.8151 48.3058 11.8151C48.6732 11.8151 48.9616 11.6384 49.1692 11.2841C49.3474 10.9909 49.4365 10.6431 49.4365 10.2407Z" fill="white"/>
<path d="M57.6508 8.06506L56.296 12.4255H55.4142L54.853 10.532C54.7106 10.0594 54.5949 9.58946 54.5049 9.12326H54.4874C54.4038 9.60241 54.2881 10.0714 54.1393 10.532L53.5432 12.4255H52.6513L51.3773 8.06506H52.3666L52.8561 10.138C52.9746 10.6282 53.072 11.0954 53.1501 11.5375H53.1675C53.2392 11.1731 53.3576 10.7087 53.5248 10.1472L54.1393 8.06599H54.9237L55.5125 10.1028C55.6549 10.5996 55.7706 11.0778 55.8597 11.5384H55.8863C55.9515 11.0898 56.0498 10.6116 56.1803 10.1028L56.7056 8.06599H57.6508V8.06506Z" fill="white"/>
<path d="M62.6411 12.4255H61.6785V9.92804C61.6785 9.15844 61.3883 8.77364 60.8059 8.77364C60.5203 8.77364 60.2897 8.87909 60.1106 9.09091C59.9334 9.30274 59.8433 9.55249 59.8433 9.83831V12.4246H58.8807V9.31106C58.8807 8.92811 58.8688 8.51279 58.8458 8.06324H59.6918L59.7368 8.74496H59.7634C59.8755 8.53314 60.0427 8.35831 60.2622 8.21864C60.523 8.05584 60.8151 7.97351 61.1348 7.97351C61.5389 7.97351 61.8751 8.10486 62.1424 8.36849C62.4749 8.69131 62.6411 9.17324 62.6411 9.81334V12.4255Z" fill="white"/>
<path d="M65.2957 12.4256H64.334V6.06433H65.2957V12.4256Z" fill="white"/>
<path d="M70.9628 10.2093C70.9628 10.8799 70.7727 11.4293 70.3924 11.8604C69.9938 12.3035 69.4647 12.5245 68.8062 12.5245C68.1696 12.5245 67.6635 12.3127 67.2869 11.8872C66.9103 11.4626 66.722 10.9271 66.722 10.2814C66.722 9.60617 66.9159 9.05209 67.3053 8.62197C67.6948 8.19184 68.2183 7.97632 68.8769 7.97632C69.5134 7.97632 70.0232 8.18814 70.4108 8.61272C70.7782 9.02527 70.9628 9.55807 70.9628 10.2093ZM69.9635 10.2407C69.9635 9.83834 69.8772 9.49332 69.7054 9.20564C69.5042 8.85784 69.2158 8.68394 68.8429 8.68394C68.4553 8.68394 68.1614 8.85784 67.9602 9.20564C67.7875 9.49332 67.7021 9.84389 67.7021 10.2583C67.7021 10.6607 67.7884 11.0057 67.9602 11.2934C68.1687 11.6412 68.459 11.8151 68.8337 11.8151C69.2011 11.8151 69.4886 11.6384 69.6962 11.2841C69.8753 10.9909 69.9635 10.6431 69.9635 10.2407Z" fill="white"/>
<path d="M75.6216 12.4256H74.7572L74.6856 11.9233H74.659C74.3632 12.3238 73.9416 12.5245 73.3942 12.5245C72.9854 12.5245 72.6547 12.3923 72.4058 12.1296C72.1799 11.8909 72.0669 11.594 72.0669 11.2416C72.0669 10.7088 72.2873 10.3027 72.731 10.0215C73.1737 9.74029 73.7965 9.60247 74.5983 9.60894V9.52754C74.5983 8.95312 74.2989 8.66637 73.6991 8.66637C73.272 8.66637 72.8954 8.77459 72.5702 8.98919L72.3746 8.35279C72.7769 8.10212 73.2738 7.97632 73.8598 7.97632C74.9915 7.97632 75.5591 8.57757 75.5591 9.78007V11.3859C75.5591 11.8215 75.5802 12.1684 75.6216 12.4256ZM74.6222 10.9271V10.2546C73.5604 10.2361 73.0295 10.5293 73.0295 11.1333C73.0295 11.3609 73.0901 11.5311 73.2141 11.6449C73.3381 11.7586 73.4961 11.8151 73.6844 11.8151C73.8957 11.8151 74.0931 11.7475 74.2732 11.6134C74.4541 11.4784 74.5653 11.3072 74.6066 11.0973C74.6167 11.0501 74.6222 10.9927 74.6222 10.9271Z" fill="white"/>
<path d="M81.0913 12.4256H80.2371L80.1921 11.7253H80.1655C79.8927 12.2581 79.4279 12.5245 78.7748 12.5245C78.2531 12.5245 77.8187 12.3183 77.4742 11.9057C77.1298 11.4932 76.958 10.9576 76.958 10.2999C76.958 9.59413 77.1445 9.02248 77.5192 8.58588C77.882 8.17888 78.3266 7.97538 78.8557 7.97538C79.4371 7.97538 79.844 8.17241 80.0755 8.56738H80.0938V6.06433H81.0574V11.2508C81.0574 11.6754 81.0684 12.0667 81.0913 12.4256ZM80.0938 10.5867V9.85961C80.0938 9.73381 80.0846 9.63206 80.0672 9.55436C80.013 9.32126 79.8963 9.12516 79.7191 8.96698C79.54 8.80881 79.3241 8.72926 79.0752 8.72926C78.716 8.72926 78.435 8.87263 78.2283 9.16031C78.0235 9.44798 77.9197 9.81521 77.9197 10.2638C77.9197 10.6949 78.018 11.0445 78.2155 11.3137C78.424 11.6005 78.705 11.7438 79.0568 11.7438C79.3728 11.7438 79.6254 11.6245 79.8174 11.3849C80.0029 11.1639 80.0938 10.8975 80.0938 10.5867Z" fill="white"/>
<path d="M89.3241 10.2093C89.3241 10.8799 89.1339 11.4293 88.7537 11.8604C88.355 12.3035 87.8278 12.5245 87.1674 12.5245C86.5327 12.5245 86.0266 12.3127 85.6481 11.8872C85.2716 11.4626 85.0833 10.9271 85.0833 10.2814C85.0833 9.60617 85.2771 9.05209 85.6665 8.62197C86.056 8.19184 86.5795 7.97632 87.2399 7.97632C87.8746 7.97632 88.3863 8.18814 88.772 8.61272C89.1394 9.02527 89.3241 9.55807 89.3241 10.2093ZM88.3265 10.2407C88.3265 9.83834 88.2402 9.49332 88.0684 9.20564C87.8654 8.85784 87.5789 8.68394 87.2041 8.68394C86.8183 8.68394 86.5244 8.85784 86.3214 9.20564C86.1487 9.49332 86.0633 9.84389 86.0633 10.2583C86.0633 10.6607 86.1497 11.0057 86.3214 11.2934C86.5299 11.6412 86.8202 11.8151 87.1949 11.8151C87.5623 11.8151 87.8517 11.6384 88.0593 11.2841C88.2365 10.9909 88.3265 10.6431 88.3265 10.2407Z" fill="white"/>
<path d="M94.5 12.4255H93.5383V9.92804C93.5383 9.15844 93.248 8.77364 92.6648 8.77364C92.3791 8.77364 92.1486 8.87909 91.9704 9.09091C91.7922 9.30274 91.7031 9.55249 91.7031 9.83831V12.4246H90.7396V9.31106C90.7396 8.92811 90.7285 8.51279 90.7056 8.06324H91.5506L91.5956 8.74496H91.6222C91.7352 8.53314 91.9024 8.35831 92.121 8.21864C92.3828 8.05584 92.674 7.97351 92.9945 7.97351C93.3977 7.97351 93.7339 8.10486 94.0012 8.36849C94.3346 8.69131 94.5 9.17324 94.5 9.81334V12.4255Z" fill="white"/>
<path d="M100.978 8.7912H99.9183V10.9095C99.9183 11.4478 100.107 11.717 100.479 11.717C100.652 11.717 100.795 11.7022 100.908 11.6717L100.933 12.407C100.743 12.4792 100.493 12.5153 100.186 12.5153C99.8053 12.5153 99.5095 12.3987 99.2955 12.1656C99.0806 11.9325 98.974 11.5403 98.974 10.9899V8.7912H98.3412V8.06508H98.974V7.26588L99.9174 6.97913V8.06415H100.977L100.978 8.7912Z" fill="white"/>
<path d="M106.074 12.4256H105.111V9.94656C105.111 9.16493 104.82 8.77366 104.239 8.77366C103.793 8.77366 103.488 9.00028 103.32 9.45353C103.292 9.54881 103.275 9.66536 103.275 9.80226V12.4246H102.314V6.06433H103.275V8.69226H103.294C103.597 8.21403 104.031 7.97538 104.594 7.97538C104.993 7.97538 105.323 8.10673 105.585 8.37036C105.911 8.69873 106.074 9.18713 106.074 9.83278V12.4256Z" fill="white"/>
<path d="M111.331 10.0391C111.331 10.213 111.318 10.3591 111.295 10.4785H108.408C108.421 10.9095 108.559 11.2379 108.826 11.4654C109.07 11.6689 109.385 11.7707 109.771 11.7707C110.198 11.7707 110.588 11.7022 110.939 11.5644L111.089 12.2378C110.679 12.4173 110.196 12.507 109.636 12.507C108.966 12.507 108.438 12.3081 108.055 11.9104C107.671 11.5126 107.481 10.9789 107.481 10.3092C107.481 9.65152 107.659 9.10392 108.016 8.66732C108.389 8.20112 108.893 7.96802 109.53 7.96802C110.152 7.96802 110.625 8.20112 110.945 8.66732C111.203 9.03732 111.331 9.49519 111.331 10.0391ZM110.412 9.78842C110.42 9.50074 110.356 9.25284 110.226 9.04379C110.059 8.77462 109.804 8.63957 109.46 8.63957C109.146 8.63957 108.889 8.77092 108.694 9.03454C108.534 9.24452 108.439 9.49519 108.408 9.78842H110.412Z" fill="white"/>
</g>
<defs>
<clipPath id="clip0_1_4680">
<rect width="124" height="37" fill="white"/>
</clipPath>
</defs>
</svg>
