<svg width="124" height="38" viewBox="0 0 124 38" fill="none" xmlns="http://www.w3.org/2000/svg">
<g clip-path="url(#clip0_1_4712)">
<path d="M119.405 38H4.59516C2.06928 38 0.00268555 35.8626 0.00268555 33.2501V4.75064C0.00268555 2.13817 2.06928 0.000732422 4.59516 0.000732422H119.405C121.931 0.000732422 123.998 2.13817 123.998 4.75064V33.2501C123.998 35.8626 121.931 38 119.405 38Z" fill="black"/>
<path d="M119.405 0.000732422H4.59516C2.06928 0.000732422 0.00268555 2.13817 0.00268555 4.75064V33.2501C0.00268555 35.8626 2.06928 38 4.59516 38H119.405C121.931 38 123.998 35.8626 123.998 33.2501V4.75064C123.998 2.13817 121.931 0.000732422 119.405 0.000732422ZM119.405 0.760333C121.533 0.760333 123.263 2.5505 123.263 4.75064V33.2501C123.263 35.4503 121.533 37.2404 119.405 37.2404H4.59516C2.46794 37.2404 0.737868 35.4503 0.737868 33.2501V4.75064C0.737868 2.5505 2.46794 0.760333 4.59516 0.760333H119.405Z" fill="#A2A2A1"/>
<path d="M98.2218 28.5002H99.9357V16.6235H98.2218V28.5002ZM113.659 20.9021L111.694 26.0509H111.636L109.597 20.9021H107.75L110.809 28.0984L109.065 32.1016H110.852L115.565 20.9024L113.659 20.9021ZM103.939 27.1512C103.379 27.1512 102.595 26.8606 102.595 26.1426C102.595 25.2259 103.571 24.8745 104.412 24.8745C105.165 24.8745 105.521 25.0423 105.978 25.2716C105.845 26.3719 104.929 27.1512 103.939 27.1512ZM104.146 20.6423C102.906 20.6423 101.621 21.2078 101.089 22.4607L102.61 23.1175C102.935 22.4607 103.54 22.247 104.176 22.247C105.062 22.247 105.963 22.7965 105.978 23.7747V23.8968C105.667 23.7134 105.002 23.4385 104.191 23.4385C102.55 23.4385 100.881 24.3703 100.881 26.1121C100.881 27.7012 102.226 28.725 103.732 28.725C104.884 28.725 105.521 28.1902 105.918 27.5635H105.978V28.4808H107.633V23.9272C107.633 21.8186 106.11 20.6423 104.146 20.6423ZM93.5541 22.3478H91.1164V18.2771H93.5541C94.8354 18.2771 95.5628 19.374 95.5628 20.3124C95.5628 21.2328 94.8354 22.3478 93.5541 22.3478ZM93.51 16.6238H89.4033V28.5005H91.1165V24.0011H93.5101C95.4095 24.0011 97.2768 22.5791 97.2768 20.3128C97.2768 18.047 95.4095 16.6238 93.51 16.6238ZM71.1163 27.1532C69.9322 27.1532 68.9413 26.1275 68.9413 24.72C68.9413 23.2961 69.9322 22.2559 71.1163 22.2559C72.2853 22.2559 73.2027 23.2962 73.2027 24.72C73.2027 26.1275 72.2853 27.1532 71.1163 27.1532ZM73.0842 21.5669H73.025C72.6404 21.0926 71.9002 20.664 70.9685 20.664C69.0148 20.664 67.2245 22.4397 67.2245 24.72C67.2245 26.9847 69.0148 28.7448 70.9685 28.7448C71.9002 28.7448 72.6404 28.3161 73.025 27.8267H73.0842V28.4078C73.0842 29.9542 72.2853 30.7802 70.9979 30.7802C69.9477 30.7802 69.2965 29.9998 69.0299 29.3418L67.5357 29.9845C67.9644 31.0554 69.1035 32.3721 70.9979 32.3721C73.0107 32.3721 74.7124 31.1474 74.7124 28.1628V20.9088H73.0843L73.0842 21.5669ZM75.8964 28.4999H77.6122V16.6231H75.8964V28.4999ZM80.1427 24.582C80.0986 23.0208 81.3123 22.2251 82.1849 22.2251C82.8659 22.2251 83.4424 22.5773 83.6355 23.082L80.1427 24.582ZM85.4696 23.2349C85.1442 22.3324 84.1529 20.664 82.1257 20.664C80.1129 20.664 78.441 22.3016 78.441 24.7044C78.441 26.9696 80.0986 28.7448 82.3177 28.7448C84.1081 28.7448 85.1443 27.6127 85.5737 26.9543L84.2418 26.0359C83.7977 26.7094 83.1913 27.1532 82.3177 27.1532C81.4452 27.1532 80.8234 26.7399 80.4244 25.9287L85.6472 23.6944L85.4696 23.2349ZM43.8545 21.9038V23.6179H47.8201C47.7017 24.582 47.391 25.2859 46.9174 25.7758C46.3401 26.3724 45.4375 27.0308 43.8545 27.0308C41.4129 27.0308 39.5041 24.9954 39.5041 22.4701C39.5041 19.9448 41.4129 17.9091 43.8545 17.9091C45.1715 17.9091 46.1331 18.4449 46.8434 19.1337L48.0128 17.9243C47.021 16.945 45.7043 16.1951 43.8545 16.1951C40.5098 16.1951 37.6984 19.0112 37.6984 22.4701C37.6984 25.9287 40.5098 28.7448 43.8545 28.7448C45.6595 28.7448 47.0211 28.1326 48.0863 26.9848C49.1814 25.8522 49.5218 24.2606 49.5218 22.9748C49.5218 22.5774 49.492 22.21 49.4328 21.9038H43.8545ZM54.0308 27.1532C52.8468 27.1532 51.8257 26.1431 51.8257 24.7044C51.8257 23.2505 52.8468 22.256 54.0308 22.256C55.2144 22.256 56.2355 23.2505 56.2355 24.7044C56.2355 26.1431 55.2144 27.1532 54.0308 27.1532ZM54.0308 20.664C51.8698 20.664 50.1092 22.3628 50.1092 24.7044C50.1092 27.0308 51.8698 28.7448 54.0308 28.7448C56.191 28.7448 57.952 27.0308 57.952 24.7044C57.952 22.3628 56.191 20.664 54.0308 20.664ZM62.5847 27.1532C61.4015 27.1532 60.3801 26.1431 60.3801 24.7044C60.3801 23.2505 61.4016 22.256 62.5847 22.256C63.7688 22.256 64.7895 23.2505 64.7895 24.7044C64.7895 26.1431 63.7688 27.1532 62.5847 27.1532ZM62.5847 20.664C60.4245 20.664 58.6639 22.3628 58.6639 24.7044C58.6639 27.0308 60.4245 28.7448 62.5847 28.7448C64.7458 28.7448 66.5064 27.0308 66.5064 24.7044C66.5064 22.3628 64.7458 20.664 62.5847 20.664Z" fill="white"/>
<path d="M19.0285 18.4531L9.25037 29.1877C9.25073 29.1899 9.25147 29.1918 9.25181 29.1941C9.5517 30.3597 10.5811 31.218 11.8028 31.218C12.2911 31.218 12.7496 31.0814 13.1429 30.8417L13.1741 30.8228L24.1812 24.2535L19.0285 18.4531Z" fill="#EB3131"/>
<path d="M28.9216 16.6256L28.9122 16.619L24.1601 13.7697L18.8063 18.697L24.1787 24.2529L28.9057 21.432C29.7345 20.9693 30.2971 20.0656 30.2971 19.0236C30.2971 17.989 29.7421 17.0899 28.9216 16.6256Z" fill="#F6B60B"/>
<path d="M9.24898 8.81372C9.1902 9.03792 9.1593 9.27275 9.1593 9.51661V28.4856C9.1593 28.729 9.18983 28.9647 9.24935 29.1881L19.365 18.7278L9.24898 8.81372Z" fill="#5778C5"/>
<path d="M19.1008 19.0011L24.1622 13.7677L13.1676 7.17462C12.7679 6.92706 12.3015 6.78418 11.8024 6.78418C10.5807 6.78418 9.54994 7.64403 9.25 8.81104C9.24963 8.81218 9.24963 8.81296 9.24963 8.81396L19.1008 19.0011Z" fill="#3BAD49"/>
<path d="M43.533 9.29251H40.8536V9.9783H42.8614C42.8069 10.5379 42.5916 10.9773 42.2285 11.2964C41.8654 11.6156 41.4018 11.7759 40.8536 11.7759C40.2523 11.7759 39.7428 11.5592 39.3252 11.1288C38.9161 10.6894 38.7081 10.1461 38.7081 9.4915C38.7081 8.83697 38.9161 8.29364 39.3252 7.85431C39.7428 7.42387 40.2523 7.20861 40.8536 7.20861C41.1622 7.20861 41.4564 7.26352 41.7261 7.38379C41.996 7.50396 42.2127 7.67172 42.382 7.88699L42.8915 7.36004C42.6604 7.08835 42.3677 6.88058 42.0045 6.72916C41.6414 6.57773 41.2626 6.50506 40.8535 6.50506C40.0513 6.50506 39.3711 6.79299 38.8156 7.36747C38.2602 7.94335 37.9818 8.6529 37.9818 9.49152C37.9818 10.3301 38.2602 11.0412 38.8156 11.6157C39.3711 12.1901 40.0513 12.4781 40.8535 12.4781C41.696 12.4781 42.3676 12.199 42.8843 11.632C43.3392 11.16 43.5717 10.5217 43.5717 9.72315C43.5717 9.58806 43.556 9.44394 43.533 9.29251ZM44.571 6.63259V12.3504H47.7986V11.6482H45.2814V9.83441H47.5518V9.14862H45.2814V7.33622H47.7986V6.63256L44.571 6.63259ZM52.3245 7.33624V6.63259H48.5256V7.33624H50.0699V12.3503H50.7803V7.33624H52.3245ZM55.7638 6.63259H55.0534V12.3504H55.7638V6.63259ZM60.4527 7.33624V6.63259H56.6539V7.33624H58.1981V12.3503H58.9085V7.33624H60.4527ZM67.6213 7.37633C67.0731 6.79295 66.4014 6.505 65.5992 6.505C64.7955 6.505 64.1239 6.79294 63.5756 7.36742C63.0274 7.93447 62.7576 8.64544 62.7576 9.49147C62.7576 10.3375 63.0274 11.0486 63.5756 11.6157C64.1239 12.19 64.7955 12.4781 65.5992 12.4781C66.3942 12.4781 67.073 12.19 67.6213 11.6157C68.1696 11.0486 68.4393 10.3376 68.4393 9.49147C68.4393 8.65285 68.1695 7.94327 67.6213 7.37633ZM64.0851 7.85426C64.4941 7.42382 64.9964 7.20856 65.5992 7.20856C66.2005 7.20856 66.7028 7.42383 67.1046 7.85426C67.5137 8.27729 67.7145 8.82939 67.7145 9.49145C67.7145 10.155 67.5137 10.7056 67.1046 11.1287C66.7028 11.5592 66.2005 11.7758 65.5992 11.7758C64.9964 11.7758 64.4941 11.5591 64.0851 11.1287C63.6846 10.6968 63.4838 10.155 63.4838 9.49145C63.4838 8.82941 63.6846 8.28618 64.0851 7.85426ZM70.1271 8.78942L70.097 7.68647H70.1271L72.9371 12.3503H73.6791V6.63253H72.9687V9.97824L72.9988 11.0812H72.9687L70.2821 6.63253H69.4167V12.3503H70.1271V8.78942Z" fill="white" stroke="white" stroke-width="0.26666" stroke-miterlimit="10"/>
</g>
<defs>
<clipPath id="clip0_1_4712">
<rect width="124" height="38" fill="white"/>
</clipPath>
</defs>
</svg>
