<svg width="125" height="32" viewBox="0 0 125 32" fill="none" xmlns="http://www.w3.org/2000/svg">
<g clip-path="url(#clip0_5163_7611)">
<mask id="mask0_5163_7611" style="mask-type:luminance" maskUnits="userSpaceOnUse" x="0" y="0" width="125" height="32">
<path d="M125 0H0V32H125V0Z" fill="white"/>
</mask>
<g mask="url(#mask0_5163_7611)">
<path d="M15.9924 1.28027C15.7403 1.28037 15.4884 1.29553 15.2382 1.32569C14.6166 1.40181 14.009 1.56571 13.4335 1.81251C9.38063 3.53464 6.39648 9.24269 6.39648 16.0004C6.39648 22.7581 9.38063 28.4659 13.4335 30.1887C14.009 30.4355 14.6166 30.5994 15.2382 30.6755C15.4884 30.7057 15.7403 30.7209 15.9924 30.721C21.2843 30.721 25.5884 24.1176 25.5884 16.0009C25.5884 7.88409 21.2843 1.28027 15.9924 1.28027Z" fill="#F8CC5D"/>
<path d="M5.84055 10.2402H2.04498C1.58667 11.91 1.33283 13.6293 1.28906 15.3603H5.12838C5.1703 13.632 5.40924 11.9143 5.84055 10.2402Z" fill="#F8CC5D"/>
<path d="M8.00996 5.12012H4.41877C3.58812 6.30283 2.92561 7.59517 2.4502 8.96015H6.21895C6.65936 7.61271 7.26071 6.32338 8.00996 5.12012Z" fill="#F8CC5D"/>
<path d="M5.12838 16.6406H1.28906C1.33283 18.3716 1.58666 20.0909 2.04498 21.7607H5.84055C5.40923 20.0866 5.1703 18.3689 5.12838 16.6406Z" fill="#F8CC5D"/>
<path d="M11.6291 1.32569C11.3789 1.29554 11.1271 1.28037 10.8751 1.28027C8.87337 1.28027 7.01322 2.22593 5.47363 3.84029H8.90888C9.66999 2.85699 10.5893 2.00719 11.6291 1.32569Z" fill="#F8CC5D"/>
<path d="M6.21895 23.04H2.4502C2.92554 24.405 3.58797 25.6973 4.41854 26.8801H8.00972C7.26064 25.6767 6.65937 24.3874 6.21895 23.04Z" fill="#F8CC5D"/>
<path d="M8.90861 28.1602H5.47266C7.01224 29.7745 8.87263 30.7202 10.8741 30.7202C11.1262 30.7202 11.3779 30.7051 11.6282 30.675C10.5886 29.9933 9.66954 29.1434 8.90861 28.1602Z" fill="#F8CC5D"/>
<path d="M15.9932 0H10.8754C7.92041 0 5.16111 1.69884 3.10457 4.7838C1.10283 7.78829 0 11.7723 0 16.0001C0 20.2279 1.10283 24.2119 3.10457 27.2162C5.16111 30.3012 7.92041 32.0002 10.8754 32.0002H15.9932C18.948 32.0002 21.7085 30.3014 23.7631 27.2164C25.7656 24.2112 26.8677 20.2281 26.8677 16.0004C26.8677 11.7726 25.7649 7.78853 23.7631 4.78427C21.7085 1.69884 18.948 0 15.9932 0ZM10.8754 1.28001C11.1275 1.28011 11.3794 1.29527 11.6297 1.32542C10.5897 2.00692 9.67036 2.85671 8.90917 3.84003H5.47392C7.0135 2.22566 8.87365 1.28001 10.8754 1.28001ZM4.4186 5.12004H8.00978C7.26069 6.32335 6.65942 7.61268 6.21901 8.96007H2.45002C2.92543 7.59509 3.58795 6.30275 4.4186 5.12004ZM2.04502 10.2401H5.84059C5.40888 11.914 5.16955 13.6318 5.12724 15.3601H1.2891C1.33287 13.6291 1.5867 11.9098 2.04502 10.2401ZM1.2891 16.6401H5.12724C5.16916 18.3683 5.4081 20.0861 5.83941 21.7602H2.04502C1.5867 20.0904 1.33287 18.3711 1.2891 16.6401ZM4.4186 26.8802C3.58795 25.6975 2.92543 24.4051 2.45002 23.0402H6.21878C6.65919 24.3876 7.26046 25.6769 8.00955 26.8802H4.4186ZM10.8754 30.7202C8.87365 30.7202 7.0135 29.7746 5.47392 28.1602H8.90917C9.67036 29.1435 10.5897 29.9933 11.6297 30.6748C11.3794 30.705 11.1275 30.7201 10.8754 30.7202ZM15.9932 30.7202C15.7411 30.7201 15.4893 30.705 15.239 30.6748C14.6175 30.5988 14.0099 30.4351 13.4343 30.1885C9.38144 28.4656 6.39729 22.7578 6.39729 16.0001C6.39729 9.24242 9.38144 3.53438 13.4343 1.81178C14.0098 1.56498 14.6174 1.40107 15.239 1.32495C15.4893 1.29496 15.7411 1.27995 15.9932 1.28001C21.2851 1.28001 25.5892 7.88241 25.5892 16.0001C25.5892 24.1178 21.2851 30.7202 15.9932 30.7202Z" fill="black"/>
<path d="M20.0419 11.457L16.4975 12.3817L17.018 7.29366C17.0265 7.20622 17.0158 7.11798 16.9865 7.03516C16.9572 6.95234 16.91 6.87697 16.8484 6.81436C16.7928 6.7551 16.7225 6.71149 16.6447 6.68792C16.5669 6.66434 16.4843 6.66161 16.4051 6.68001L12.2422 7.76637C12.1475 7.79482 12.0643 7.85267 12.0046 7.93156C11.9449 8.01045 11.9119 8.10629 11.9103 8.2052L11.3291 17.8824C11.3242 17.9681 11.3377 18.0538 11.3687 18.1338C11.3997 18.2138 11.4476 18.2861 11.5091 18.346C11.5646 18.4026 11.6338 18.444 11.71 18.4661C11.7861 18.4882 11.8667 18.4902 11.9439 18.4721L16.0688 17.3961L16.4641 24.7964C16.4681 24.9184 16.5115 25.0359 16.5878 25.1311C16.6642 25.2264 16.7693 25.2944 16.8875 25.3249C16.9506 25.3378 17.0158 25.3362 17.0782 25.3201C17.1563 25.2979 17.227 25.255 17.2826 25.1958C17.3383 25.1366 17.3769 25.0635 17.3943 24.9841L20.64 12.1499C20.6621 12.058 20.662 11.9621 20.6398 11.8702C20.6176 11.7783 20.5739 11.6929 20.5123 11.6212C20.4572 11.5524 20.3839 11.5005 20.3007 11.4714C20.2175 11.4423 20.1279 11.4371 20.0419 11.4565" fill="black"/>
<path d="M48.2428 11.9199C48.1869 12.1807 48.1288 12.4323 48.0682 12.6745C48.0077 12.9167 47.9495 13.1473 47.8935 13.3665C47.8404 13.5646 47.8123 13.7686 47.8098 13.9738C47.8098 14.0669 47.7213 14.1787 47.5445 14.3091C47.3499 14.4506 47.1444 14.5765 46.9299 14.6855C46.6972 14.8068 46.4691 14.9166 46.2455 15.0149C46.0906 15.0859 45.9321 15.1488 45.7706 15.2032C45.4821 15.2782 45.1958 15.3506 44.9117 15.4204C44.6276 15.4902 44.3413 15.5669 44.0528 15.6505C44.3414 15.8276 44.6231 16.0024 44.8978 16.175C45.1725 16.3475 45.4542 16.5173 45.7429 16.6844C45.8546 16.7495 45.9781 16.8223 46.1131 16.9016C46.2481 16.9808 46.3807 17.0646 46.511 17.1531C46.6374 17.238 46.7524 17.3388 46.853 17.4531C46.9487 17.5612 47.0181 17.6901 47.0555 17.8296C47.18 18.2503 47.255 18.6841 47.2789 19.1223C47.3068 19.5835 47.3208 20.0281 47.3208 20.4562C47.3207 20.8904 47.3464 21.3243 47.3977 21.7555C47.4491 22.184 47.498 22.6218 47.5445 23.0689C47.5915 23.4234 47.6307 23.7799 47.6621 24.1383C47.6934 24.4967 47.7326 24.8529 47.7797 25.2068C47.3141 25.1323 46.8648 25.0717 46.4318 25.0251C45.9841 24.9775 45.5342 24.954 45.0841 24.9546C44.842 24.9546 44.6068 24.9499 44.3785 24.9407C44.1502 24.9314 43.9198 24.9175 43.6873 24.8988C43.8176 24.4331 43.9273 23.9673 44.0165 23.5016C44.105 23.0362 44.1494 22.5635 44.1492 22.0898C44.1492 21.6338 44.1445 21.1774 44.1351 20.7206C44.1257 20.2639 44.121 19.8074 44.121 19.3512C44.1124 19.0984 44.0555 18.8496 43.9533 18.6183C43.8646 18.3823 43.7374 18.1626 43.577 17.9681C43.4515 17.8934 43.3107 17.8482 43.1651 17.8359C42.937 17.794 42.6879 17.7568 42.4179 17.7241C42.1479 17.6915 41.8942 17.6657 41.6568 17.6467C41.4194 17.6281 41.2681 17.6141 41.2029 17.6048C41.2216 18.3967 41.2542 19.1838 41.3008 19.9663C41.3473 20.7487 41.3708 21.5358 41.3713 22.3275C41.3708 22.5358 41.3871 22.7439 41.4202 22.9496C41.4527 23.1498 41.4923 23.3522 41.539 23.5569C41.1103 23.4824 40.6912 23.4196 40.2817 23.3687C39.8554 23.3163 39.4263 23.2905 38.9968 23.2915H38.307C38.0791 23.2915 37.853 23.2825 37.6298 23.2635C37.7576 22.8203 37.8464 22.3668 37.8951 21.9082C37.9422 21.4611 37.9725 21.0141 37.9862 20.567C37.9998 20.1199 38.0067 19.6729 38.0069 19.2258C38.0069 18.7787 38.0208 18.3223 38.0487 17.8566C38.0958 17.13 38.1214 16.4013 38.1256 15.6705C38.1299 14.9397 38.1322 14.2102 38.1327 13.4822C38.1327 12.747 38.1001 12.0205 38.0348 11.3027C37.9696 10.5849 37.937 9.85828 37.937 9.1229C37.9364 8.81832 37.9083 8.51442 37.853 8.2149C37.7993 7.9292 37.7712 7.63925 37.7693 7.34854C37.7597 7.23901 37.7289 7.13239 37.6785 7.03465C37.618 6.89975 37.5692 6.79489 37.5322 6.72006C37.8019 6.7014 38.0742 6.68743 38.3491 6.67818C38.6235 6.66924 38.8959 6.66406 39.1659 6.66406C39.6844 6.664 40.2023 6.69914 40.7161 6.76924C41.2252 6.8388 41.7385 6.87371 42.2523 6.87371C42.5487 6.87391 42.8447 6.85773 43.1393 6.82524C43.4337 6.79235 43.7297 6.77585 44.0259 6.77583C44.2366 6.78269 44.4466 6.80384 44.6544 6.83912C44.9338 6.88101 45.22 6.93904 45.5131 7.01324C45.7871 7.08156 46.0555 7.17028 46.3163 7.27866C46.5018 7.33818 46.6634 7.45571 46.7773 7.61395C46.9677 7.9464 47.1924 8.25805 47.4476 8.54384C47.7045 8.83171 47.9207 9.15354 48.0901 9.50032C48.1515 9.6088 48.194 9.72696 48.2157 9.84973C48.2437 9.9895 48.2667 10.1366 48.2863 10.2904C48.3058 10.4443 48.3164 10.593 48.3211 10.7375C48.3258 10.882 48.3281 11.0048 48.3281 11.1074C48.3289 11.3797 48.3007 11.6514 48.2442 11.9177M44.5631 11.1032C44.5184 10.9021 44.4624 10.7036 44.3954 10.5088C44.3306 10.3169 44.256 10.1284 44.172 9.94409C44.1257 9.81588 44.0462 9.70222 43.9417 9.61467C43.8501 9.56446 43.7455 9.54275 43.6414 9.55232C43.5158 9.55702 43.4154 9.55891 43.3411 9.55891C43.1457 9.55891 42.9432 9.56824 42.7336 9.58691C42.524 9.60597 42.317 9.61491 42.1122 9.61491C41.9447 9.61491 41.7794 9.61028 41.6164 9.60103C41.4533 9.59177 41.2833 9.57781 41.1065 9.55914C41.106 9.91942 41.078 10.2791 41.0227 10.6352C40.9673 10.9911 40.9393 11.3507 40.9388 11.7109C40.9391 12.2011 40.9672 12.6909 41.0227 13.178C41.0786 13.6723 41.1298 14.1567 41.1763 14.6312C41.3361 14.537 41.5017 14.453 41.6721 14.3796C41.9003 14.2772 42.1424 14.1794 42.3984 14.0862C42.6545 13.9931 42.9013 13.9117 43.1388 13.8422C43.3082 13.785 43.4842 13.7497 43.6626 13.7371C43.7669 13.7419 43.8708 13.7216 43.9656 13.6778C44.0604 13.6341 44.1433 13.5681 44.2073 13.4855C44.3433 13.305 44.4405 13.0982 44.4926 12.8782C44.5535 12.6378 44.5909 12.392 44.6043 12.1443C44.6182 11.8928 44.6252 11.6883 44.6252 11.5295C44.6181 11.3859 44.597 11.2434 44.5622 11.1039" fill="black"/>
<path d="M57.8583 24.3908C57.4336 24.3482 57.0071 24.3271 56.5802 24.3275C56.1801 24.3275 55.7821 24.3393 55.3862 24.3628C54.9902 24.3863 54.5876 24.4211 54.1782 24.467C54.1234 23.9659 54.0953 23.4622 54.0942 22.9581C54.0942 22.7542 54.1012 22.5564 54.1152 22.3647C54.1298 22.1691 54.1602 21.9751 54.206 21.7844C53.7312 21.8315 53.2656 21.8759 52.8091 21.9176C52.3479 21.9603 51.8904 22.0373 51.4405 22.1477C51.3607 22.3152 51.2931 22.4882 51.2383 22.6654C51.1878 22.8299 51.1504 22.9981 51.1266 23.1684C51.1031 23.3377 51.089 23.508 51.0844 23.6788C51.0797 23.8514 51.0728 24.0305 51.0635 24.2162C50.3932 24.2721 49.7228 24.3139 49.0524 24.3419C48.3819 24.3698 47.7069 24.4118 47.0273 24.4678C47.2972 23.7881 47.5812 23.1152 47.8792 22.4491C48.1773 21.7831 48.4682 21.1146 48.752 20.4437C49.0361 19.773 49.3062 19.0955 49.5623 18.4112C49.8193 17.7233 50.0361 17.021 50.2116 16.3079C50.3965 15.5771 50.6202 14.8567 50.8819 14.1498C51.1427 13.4467 51.4197 12.7503 51.7129 12.0606C52.0061 11.3709 52.3064 10.684 52.6137 10.0001C52.921 9.31556 53.2143 8.62379 53.4935 7.9248C54.0151 9.31305 54.4969 10.6988 54.9391 12.082C55.3812 13.4652 55.7654 14.8739 56.0915 16.3079C56.2209 16.8365 56.3818 17.3569 56.5732 17.8663C56.764 18.3741 56.9572 18.8886 57.1527 19.4098C57.4787 20.2569 57.8116 21.1023 58.1513 21.9461C58.4911 22.7899 58.81 23.649 59.1081 24.5235C58.6891 24.4765 58.2725 24.4324 57.858 24.3913M53.2703 14.8825L52.2369 19.2559L53.843 19.0602L53.2703 14.8825Z" fill="black"/>
<path d="M69.5335 10.8236C69.5009 11.1461 69.4845 11.4701 69.4845 11.7942C69.4843 12.0536 69.4983 12.3128 69.5264 12.5707C69.554 12.8234 69.5679 13.0774 69.568 13.3317H69.0793C68.6176 13.351 68.1552 13.3323 67.6966 13.2757C67.2379 13.2191 66.7761 13.1911 66.3139 13.1919C66.1341 13.1918 65.9545 13.1803 65.7762 13.1573C65.5947 13.1338 65.4199 13.1079 65.2524 13.0799C65.3133 13.394 65.3576 13.7112 65.3851 14.03C65.4177 14.3845 65.4412 14.7478 65.4557 15.1199C65.4701 15.492 65.4771 15.8623 65.4766 16.231V17.2296C65.4752 17.6932 65.5145 18.1561 65.5942 18.6129C65.6733 19.0649 65.7127 19.5231 65.7118 19.9821C65.7118 20.1968 65.7071 20.4086 65.6977 20.6174C65.6883 20.8261 65.6836 21.0332 65.6838 21.2385C65.6835 21.8963 65.7371 22.5531 65.8442 23.2021C65.9496 23.8419 66.0966 24.4741 66.2843 25.0948C66.0144 25.0948 65.7444 25.0901 65.4742 25.0807C65.2041 25.0713 64.9387 25.0666 64.6781 25.0668C64.0762 25.0666 63.4748 25.0993 62.8765 25.1647C62.2807 25.2299 61.6894 25.2858 61.1027 25.3322L61.0747 24.871C61.0651 24.4857 61.0862 24.1001 61.1377 23.7181C61.1888 23.3416 61.2493 22.9644 61.3191 22.5863C61.3888 22.2083 61.4563 21.831 61.5216 21.4545C61.5868 21.0777 61.6287 20.6972 61.6472 20.3152C61.6935 19.7203 61.7052 19.1232 61.6822 18.527C61.659 17.9402 61.6473 17.3534 61.6472 16.7667C61.6472 16.4687 61.6611 16.1752 61.689 15.8863C61.7168 15.598 61.7518 15.3135 61.7939 15.034C61.836 14.7545 61.8776 14.4693 61.9195 14.1818C61.9614 13.8942 61.9917 13.6001 62.0103 13.3015H61.8706C61.499 13.2736 61.1253 13.2974 60.7602 13.3721C60.3924 13.4469 60.0318 13.5215 59.6783 13.5957C59.5307 13.6863 59.3671 13.748 59.1964 13.7773C58.959 13.8331 58.7053 13.8822 58.4353 13.9246C58.1653 13.967 57.9047 14.0017 57.6533 14.0288C57.4019 14.0568 57.2156 14.0759 57.0947 14.0848C57.169 13.7868 57.2412 13.4866 57.3111 13.1841C57.3812 12.8792 57.4164 12.5673 57.416 12.2545C57.416 11.7054 57.3973 11.1559 57.36 10.6057C57.3227 10.0556 57.3041 9.50605 57.3043 8.95703C57.7046 9.08786 58.1026 9.21829 58.4984 9.34833C58.8941 9.47837 59.2945 9.59727 59.6995 9.70504C60.1047 9.81202 60.5123 9.90049 60.9225 9.97045C61.3331 10.0402 61.7488 10.0751 62.1653 10.0747H68.6317C68.8018 10.0703 68.9707 10.0447 69.1343 9.99822C69.3297 9.94708 69.4926 9.89798 69.6231 9.85092C69.5952 10.1775 69.5649 10.5014 69.5323 10.8225" fill="black"/>
<path d="M79.1497 12.3326C78.8704 12.3001 78.598 12.2675 78.3326 12.2347C78.0671 12.2019 77.7971 12.1761 77.5226 12.1573C77.2479 12.1386 76.943 12.1293 76.6079 12.1293C76.1715 12.1288 75.7354 12.1546 75.3021 12.2067C74.8734 12.258 74.442 12.2834 74.0102 12.2829C73.8536 12.2831 73.6972 12.2716 73.5424 12.2483C73.3887 12.2249 73.2328 12.1992 73.0746 12.1711C73.1473 12.5847 73.1939 13.0025 73.2141 13.422C73.2327 13.8272 73.242 14.2485 73.242 14.686C73.242 14.8537 73.2467 15.0285 73.2561 15.2105C73.2656 15.3924 73.2795 15.5716 73.298 15.7479C73.8565 15.6641 74.3825 15.5989 74.8759 15.5523C75.3694 15.5058 75.8559 15.4617 76.3355 15.4201C76.815 15.3782 77.3011 15.3316 77.7938 15.2803C78.2864 15.229 78.8078 15.1614 79.358 15.0773L79.4977 18.179C79.2649 18.1702 79.0508 18.1633 78.8554 18.1585C78.6601 18.1536 78.4691 18.1419 78.2825 18.1232C78.0964 18.1045 77.9082 18.0766 77.718 18.0394C77.527 18.0027 77.3107 17.951 77.0686 17.8858C76.8138 17.8164 76.5545 17.765 76.2925 17.7319C76.0086 17.6953 75.7199 17.6674 75.4265 17.6481C75.1332 17.6288 74.8422 17.6149 74.5537 17.6062C74.2651 17.5973 73.9996 17.5877 73.7576 17.5782L73.604 21.2667H74.6934C75.1495 21.2667 75.5729 21.2528 75.9635 21.2249C76.3541 21.1969 76.7405 21.1667 77.1227 21.1343C77.5044 21.1018 77.8907 21.0714 78.2818 21.043C78.6728 21.0146 79.0962 21.0006 79.5518 21.0011L79.6494 24.1588C79.3515 24.1401 79.0792 24.1239 78.8326 24.1103C78.586 24.0966 78.3462 24.0849 78.1132 24.075L77.3942 24.047C77.1474 24.0383 76.8751 24.0331 76.5769 24.0331C76.2231 24.0331 75.8484 24.0356 75.4526 24.0406C75.0749 24.043 74.6984 24.0824 74.3284 24.1583C73.8052 24.2727 73.2718 24.3335 72.7364 24.3399C72.1775 24.3492 71.6468 24.3538 71.1441 24.3538C70.8554 24.3538 70.5761 24.3492 70.3061 24.3399C70.0359 24.331 69.7652 24.3258 69.4961 24.3258C69.5613 24.1581 69.6498 23.9278 69.7616 23.6348C69.8734 23.3417 69.9851 23.0318 70.0968 22.7051C70.2086 22.3791 70.3063 22.0624 70.3901 21.755C70.4622 21.519 70.5045 21.2749 70.5159 21.0284C70.5159 20.3768 70.4972 19.7272 70.4599 19.0797C70.4226 18.4321 70.3807 17.7848 70.3343 17.1375C70.2873 16.49 70.2454 15.8426 70.2087 15.1954C70.172 14.5482 70.1543 13.8991 70.1556 13.2481C70.1556 12.6428 70.1603 12.0398 70.1697 11.4391C70.1791 10.8385 70.1931 10.2306 70.2116 9.61536C70.453 9.70844 70.7002 9.78555 70.9517 9.84618C71.2033 9.9067 71.4611 9.93711 71.7199 9.93677H71.9294C72.5439 9.83418 73.156 9.74101 73.7658 9.65724C74.3697 9.57381 74.9787 9.53183 75.5883 9.53159C75.9701 9.53159 76.3425 9.51544 76.7055 9.48312C77.0685 9.45081 77.4291 9.40893 77.7874 9.35747C78.1458 9.30634 78.5044 9.25041 78.8629 9.18971C79.2215 9.129 79.587 9.07065 79.9592 9.01465C79.9407 9.21951 79.9267 9.42226 79.9173 9.62289C79.9079 9.82352 79.9032 10.0213 79.9032 10.2163C79.9041 10.585 79.925 10.9534 79.966 11.3198C80.0079 11.7023 80.0428 12.0702 80.0707 12.4236C79.7356 12.3957 79.4284 12.3656 79.1489 12.3333" fill="black"/>
<path d="M91.0204 13.1363C90.9925 13.4344 90.9533 13.765 90.9028 14.1283C90.8523 14.4916 90.7918 14.8667 90.7212 15.2535C90.6514 15.6402 90.5746 16.0035 90.4907 16.3434C90.4175 16.6479 90.3289 16.9485 90.2254 17.2441C90.1635 17.4444 90.0691 17.6332 89.946 17.803C89.8156 17.9427 89.6619 18.1103 89.485 18.3058C89.3048 18.505 89.1136 18.694 88.9126 18.8721C88.72 19.0446 88.5119 19.1989 88.2909 19.3331C88.1096 19.4503 87.8995 19.5154 87.6837 19.5213C87.4606 19.5174 87.2384 19.4917 87.0202 19.4448C86.7641 19.3937 86.4988 19.3332 86.224 19.2632C85.9493 19.1932 85.6817 19.1187 85.4211 19.0397C85.1603 18.9605 84.9322 18.8928 84.7367 18.8366C84.7552 19.8238 84.7923 20.8136 84.8482 21.806C84.904 22.7985 84.9413 23.7927 84.9601 24.7887C84.6161 24.6677 84.2603 24.5834 83.8987 24.5371C83.5355 24.4901 83.1724 24.4553 82.8093 24.4329C82.4461 24.4105 82.0831 24.3825 81.7201 24.3489C81.3569 24.3164 80.9971 24.2535 80.6445 24.1606C80.719 23.8446 80.7935 23.521 80.868 23.1901C80.9417 22.8654 80.993 22.5361 81.0215 22.2044C81.0386 22.0274 81.0713 21.8523 81.1194 21.6811C81.1664 21.5181 81.2153 21.3598 81.2659 21.206C81.3166 21.0523 81.3678 20.8961 81.4197 20.7373C81.4717 20.5744 81.5022 20.4053 81.5105 20.2345C81.5663 19.6855 81.5989 19.1359 81.6084 18.5858C81.6178 18.0357 81.6224 17.4908 81.6222 16.9512C81.6222 16.7368 81.6152 16.5208 81.6013 16.302C81.5873 16.0833 81.557 15.8659 81.5105 15.6516C81.438 15.2501 81.3937 14.8439 81.3779 14.4361C81.3639 14.0447 81.3569 13.6396 81.3569 13.2206C81.3561 12.438 81.3045 11.6564 81.2026 10.8806C81.1001 10.0934 80.993 9.31779 80.8814 8.55371C81.0544 8.62641 81.2346 8.68044 81.419 8.71489C81.6285 8.75661 81.8426 8.78924 82.0613 8.81277C82.2801 8.8363 82.4966 8.85238 82.711 8.86101C82.9251 8.87042 83.116 8.87513 83.2837 8.87513C83.9265 8.87513 84.5689 8.86116 85.2108 8.83324C85.8528 8.80532 86.4952 8.79136 87.1382 8.79136C87.5994 8.79898 88.0538 8.90369 88.4718 9.09866C88.9343 9.305 89.3626 9.58081 89.7419 9.91654C90.1221 10.2487 90.4431 10.643 90.6913 11.0827C90.9323 11.4988 91.0599 11.9709 91.0615 12.4519C91.0615 12.6107 91.0477 12.8384 91.0194 13.1366M87.5002 14.1566C87.491 13.9423 87.477 13.7166 87.4584 13.4794C87.4397 13.2422 87.4162 13.0255 87.3878 12.8293C87.3802 12.7088 87.3519 12.5906 87.3041 12.4799C87.1709 12.3716 87.0122 12.2995 86.8431 12.2702C86.5823 12.1957 86.2937 12.119 85.9771 12.0401C85.6605 11.9612 85.3556 11.8913 85.0624 11.8304C84.7691 11.7699 84.5574 11.7208 84.4274 11.6831C84.4553 12.4287 84.4832 13.1717 84.5111 13.9121C84.539 14.6525 84.5669 15.3952 84.5949 16.1401C84.8649 16.168 85.1371 16.2031 85.4117 16.2453C85.6914 16.2874 85.9739 16.3083 86.2567 16.3077C86.3456 16.3048 86.4333 16.2859 86.5155 16.2519C86.6168 16.2131 86.7148 16.1664 86.8087 16.1121C86.9053 16.057 86.9986 15.9964 87.0882 15.9305C87.1647 15.8755 87.237 15.8148 87.3045 15.7491C87.3672 15.6803 87.4106 15.5961 87.4301 15.5051C87.4585 15.3948 87.4795 15.2828 87.4929 15.1698C87.5065 15.0584 87.5135 14.9464 87.5139 14.8342V14.5747C87.5139 14.5101 87.5092 14.3703 87.4997 14.1554" fill="black"/>
<path d="M101.003 14.233C100.93 15.4487 100.894 16.6664 100.894 17.8862C100.894 18.1687 100.908 18.451 100.936 18.7321C100.964 19.0128 100.978 19.2947 100.978 19.5768C100.978 19.6887 100.964 19.8682 100.936 20.1154C100.908 20.3626 100.871 20.6442 100.824 20.9601C100.777 21.2767 100.724 21.6051 100.664 21.9455C100.604 22.2859 100.536 22.6026 100.461 22.8957C100.398 23.1512 100.321 23.4031 100.231 23.6503C100.191 23.7973 100.112 23.9303 100 24.0338C99.8325 24.1456 99.6443 24.2645 99.4356 24.3905C99.2284 24.515 99.0138 24.627 98.7931 24.7258C98.5777 24.8221 98.356 24.9036 98.1296 24.9698C97.9212 25.0328 97.705 25.0657 97.4873 25.0677C97.2252 25.0533 96.9666 25.0016 96.7191 24.914C96.3933 24.8114 96.0562 24.686 95.7078 24.5376C95.3594 24.3892 95.0289 24.238 94.7162 24.0839C94.4042 23.9302 94.1645 23.802 93.997 23.6992C93.4796 23.4047 93.0449 22.9844 92.7331 22.4771C92.4277 21.9718 92.2016 21.4227 92.0625 20.8488C91.9171 20.2558 91.8305 19.6499 91.8038 19.0399C91.7759 18.4204 91.7619 17.8358 91.7617 17.286C91.7617 16.7462 91.7873 16.2084 91.8386 15.6726C91.8899 15.1367 91.9458 14.5987 92.0063 14.0584C92.0668 13.5187 92.1227 12.9784 92.1738 12.4377C92.2249 11.897 92.2505 11.3568 92.2507 10.817C92.2509 10.5599 92.2323 10.3031 92.1949 10.0487C92.1576 9.79777 92.1111 9.54161 92.0552 9.28027C92.3444 9.3082 92.6312 9.334 92.9156 9.35769C93.2 9.38137 93.4868 9.3929 93.7759 9.39227C94.2435 9.39109 94.7105 9.36304 95.1749 9.30827C95.0194 9.86922 94.895 10.4383 94.8023 11.013C94.6949 11.6561 94.606 12.3175 94.5356 12.997C94.4652 13.6765 94.4112 14.345 94.3735 15.0024C94.3364 15.6589 94.3178 16.2479 94.3178 16.7693C94.3178 16.909 94.3202 17.1208 94.3249 17.4046C94.3296 17.6883 94.3435 18.0025 94.3667 18.3472C94.3899 18.6923 94.4202 19.0462 94.4575 19.4091C94.491 19.7497 94.5447 20.0881 94.6181 20.4225C94.6756 20.6964 94.7623 20.9634 94.8769 21.2187C94.9435 21.4 95.0787 21.5479 95.2532 21.6305C95.3744 21.6584 95.4977 21.6819 95.6231 21.7011C95.7503 21.7201 95.8788 21.7295 96.0075 21.7291C96.1373 21.7266 96.2663 21.7079 96.3915 21.6733C96.5339 21.6373 96.6703 21.5809 96.7965 21.5058C96.917 21.4353 97.0232 21.3428 97.1096 21.2331C97.1926 21.1276 97.237 20.9968 97.2352 20.8625C97.2349 20.3958 97.2585 19.9294 97.3057 19.4651C97.3526 19.0055 97.3762 18.5439 97.3763 18.082C97.3763 17.095 97.3483 16.1101 97.2923 15.1274C97.2363 14.1446 97.2084 13.1455 97.2086 12.1299C97.2085 11.8324 97.2365 11.5354 97.2923 11.2431C97.348 10.9508 97.3667 10.6526 97.348 10.3556C97.993 10.4026 98.6423 10.4353 99.2962 10.4535C99.95 10.4717 100.599 10.5182 101.245 10.5932C101.157 11.8041 101.077 13.0175 101.004 14.2335" fill="black"/>
<path d="M113.171 10.9074C113.087 11.3309 113.008 11.7523 112.933 12.1714C112.823 12.8327 112.75 13.4999 112.717 14.1695C112.684 14.831 112.622 15.4971 112.529 16.1677C112.426 17.0336 112.307 17.8951 112.173 18.7522C112.038 19.6118 111.97 20.4808 111.97 21.351C111.97 21.9378 111.998 22.5293 112.054 23.1254C112.11 23.7215 112.147 24.3129 112.166 24.8997C111.477 24.8527 110.795 24.8179 110.119 24.7955C109.444 24.7731 108.762 24.7287 108.073 24.6623C108.12 24.1784 108.164 23.6939 108.205 23.2089C108.246 22.7239 108.268 22.2396 108.269 21.7562C108.274 21.2134 108.216 20.6718 108.094 20.1428C107.981 19.6703 107.812 19.2129 107.591 18.7799C107.366 18.3418 107.105 17.9236 106.809 17.5298C106.507 17.1246 106.174 16.6983 105.811 16.251C105.792 16.7537 105.785 17.2592 105.79 17.7675C105.795 18.2659 105.755 18.7638 105.671 19.255C105.569 19.8697 105.471 20.4752 105.378 21.0712C105.284 21.6768 105.237 22.2888 105.238 22.9016C105.238 23.1373 105.249 23.373 105.273 23.6075C105.296 23.8356 105.331 24.066 105.378 24.2988C105.098 24.2988 104.812 24.3033 104.519 24.3124C104.226 24.3215 103.935 24.3262 103.646 24.3266C103.372 24.3264 103.098 24.3008 102.829 24.2501C102.554 24.199 102.282 24.1362 102.012 24.0619C102.179 22.6556 102.34 21.2537 102.494 19.8562C102.648 18.441 102.725 17.0184 102.724 15.5947C102.724 15.0579 102.691 14.5215 102.626 13.9886C102.561 13.4487 102.482 12.9062 102.389 12.3613C102.296 11.8163 102.195 11.2712 102.088 10.726C101.981 10.181 101.886 9.64771 101.802 9.12598C102.216 9.18938 102.633 9.22209 103.052 9.22386H104.302C104.628 9.22386 104.951 9.23319 105.273 9.25186C105.594 9.27053 105.917 9.28911 106.243 9.30762C106.357 9.68324 106.445 10.0661 106.508 10.4535C106.583 10.8918 106.659 11.3321 106.739 11.7745C106.818 12.2168 106.909 12.6382 107.011 13.0385C107.092 13.3844 107.219 13.718 107.387 14.0305C107.616 14.4441 107.871 14.8432 108.148 15.2256C108.423 15.6023 108.673 15.9965 108.896 16.4058C109.073 16.7223 109.245 17.0369 109.413 17.3493C109.581 17.6618 109.744 17.9761 109.902 18.2922C109.958 17.5006 110.009 16.7089 110.055 15.9169C110.102 15.1248 110.126 14.3331 110.126 13.5415C110.131 12.8297 110.042 12.1202 109.861 11.4319C109.674 10.7496 109.45 10.078 109.19 9.41986C109.544 9.42912 109.896 9.44559 110.245 9.46927C110.594 9.49296 110.945 9.51845 111.299 9.54574C111.653 9.57367 112.007 9.59939 112.361 9.62292C112.714 9.64645 113.068 9.65335 113.422 9.64363C113.338 10.0628 113.254 10.4843 113.171 10.9083" fill="black"/>
<path d="M123.687 11.5501C123.221 12.0764 122.751 12.5955 122.276 13.1075C121.8 13.6195 121.326 14.1344 120.851 14.652C120.377 15.1697 119.921 15.703 119.483 16.252C119.557 16.3452 119.69 16.5061 119.881 16.7346C120.072 16.9632 120.288 17.2215 120.53 17.5095C120.772 17.7981 121.024 18.1033 121.284 18.4252C121.545 18.7471 121.787 19.0452 122.011 19.3194C122.234 19.594 122.42 19.8293 122.569 20.0252C122.668 20.1368 122.749 20.264 122.807 20.4017C122.895 20.7337 123.014 21.0567 123.163 21.3664C123.307 21.6645 123.461 21.9533 123.624 22.2328C123.787 22.5123 123.945 22.7964 124.098 23.085C124.256 23.3813 124.389 23.6897 124.497 24.0072C123.854 24.0351 123.246 24.0723 122.674 24.1189C122.072 24.171 121.476 24.2785 120.893 24.4401C120.797 23.7955 120.648 23.16 120.447 22.5401C120.234 21.911 119.928 21.3175 119.539 20.7796C119.151 20.2359 118.801 19.6664 118.491 19.0751C118.184 18.4883 117.868 17.9015 117.542 17.3146C117.523 17.6691 117.495 18.0184 117.458 18.3624C117.421 18.7105 117.402 19.0603 117.402 19.4104C117.402 19.8563 117.426 20.3018 117.473 20.7452C117.52 21.1878 117.578 21.6256 117.647 22.0587C117.717 22.4918 117.789 22.9249 117.863 23.358C117.938 23.7911 118.003 24.2264 118.059 24.6639H117.654C117.367 24.6733 117.08 24.6593 116.795 24.622C116.511 24.5846 116.227 24.5406 115.943 24.4897C115.659 24.4389 115.375 24.3876 115.091 24.3359C114.803 24.284 114.511 24.2535 114.218 24.2446C114.293 23.3876 114.393 22.5332 114.519 21.6813C114.645 20.8229 114.708 19.9565 114.707 19.089C114.707 18.3066 114.672 17.4707 114.602 16.5814C114.532 15.6922 114.441 14.7887 114.33 13.8708C114.218 12.9533 114.094 12.0498 113.959 11.1602C113.825 10.2707 113.692 9.4345 113.562 8.65174C113.859 8.70774 114.164 8.75433 114.476 8.79151C114.789 8.8289 115.104 8.8476 115.419 8.84751C115.829 8.84751 116.243 8.83818 116.662 8.81951C117.074 8.80286 117.478 8.70305 117.849 8.5261V10.3005C117.85 10.6786 117.829 11.0564 117.787 11.4322C117.745 11.8048 117.7 12.1752 117.654 12.5435C117.607 12.9119 117.563 13.282 117.521 13.6539C117.479 14.025 117.458 14.3981 117.458 14.7716C117.458 14.8744 117.461 14.9746 117.465 15.0723C117.471 15.1737 117.487 15.2743 117.514 15.3723C117.896 14.7947 118.243 14.2358 118.554 13.6955C118.866 13.1553 119.16 12.6129 119.434 12.0682C119.709 11.5233 119.968 10.962 120.21 10.3842C120.453 9.8065 120.691 9.18689 120.923 8.52539C121.246 8.69202 121.579 8.83674 121.921 8.95857C122.261 9.07983 122.601 9.18963 122.941 9.28798C123.28 9.38634 123.623 9.48414 123.967 9.5814C124.312 9.67928 124.657 9.78862 125.001 9.9094C124.591 10.4776 124.154 11.0249 123.688 11.5515" fill="black"/>
</g>
</g>
<defs>
<clipPath id="clip0_5163_7611">
<rect width="125" height="32" fill="white"/>
</clipPath>
</defs>
</svg>
