<svg width="279" height="32" viewBox="0 0 279 32" fill="none" xmlns="http://www.w3.org/2000/svg">
<path d="M132.635 4H108.635V28H132.635V4Z" fill="#00B67A"/>
<path d="M132.635 4H120.635V28H132.635V4Z" fill="#CCD1D9"/>
<path d="M129.035 14.1177H122.615L120.641 8.01514L118.655 14.1177L112.235 14.1057L117.426 17.8821L115.439 23.9847L120.629 20.2083L125.82 23.9847L123.844 17.8821L129.035 14.1177Z" fill="white"/>
<path d="M124.288 19.2616L123.844 17.8816L120.641 20.2084L124.288 19.2616Z" fill="#CCD1D9"/>
<path d="M105.635 4H81.6348V28H105.635V4Z" fill="#00B67A"/>
<path d="M102.033 14.1177H95.6134L93.6394 8.01514L91.6534 14.1177L85.2334 14.1063L90.424 17.8827L88.4368 23.9853L93.6274 20.2089L98.818 23.9853L96.8422 17.8827L102.033 14.1177Z" fill="white"/>
<path d="M97.2875 19.2616L96.8435 17.8816L93.6401 20.2084L97.2875 19.2616Z" fill="#00B67A"/>
<path d="M78.6348 4H54.6348V28H78.6348V4Z" fill="#00B67A"/>
<path d="M75.0334 14.1177H68.6134L66.6394 8.01514L64.6534 14.1177L58.2334 14.1063L63.424 17.8827L61.4368 23.9853L66.6274 20.2089L71.818 23.9853L69.8422 17.8827L75.0334 14.1177Z" fill="white"/>
<path d="M70.2875 19.2616L69.8435 17.8816L66.6401 20.2084L70.2875 19.2616Z" fill="#00B67A"/>
<path d="M51.6348 4H27.6348V28H51.6348V4Z" fill="#00B67A"/>
<path d="M48.0354 14.1177H41.6154L39.6414 8.01514L37.6554 14.1177L31.2354 14.1063L36.426 17.8827L34.4388 23.9853L39.6294 20.2089L44.82 23.9853L42.8442 17.8827L48.0354 14.1177Z" fill="white"/>
<path d="M43.2895 19.2616L42.8455 17.8816L39.6421 20.2084L43.2895 19.2616Z" fill="#00B67A"/>
<path d="M24.6348 4H0.634766V28H24.6348V4Z" fill="#00B67A"/>
<path d="M21.0354 14.1177H14.6154L12.6414 8.01514L10.6554 14.1177L4.23535 14.1063L9.42595 17.8827L7.43875 23.9853L12.6294 20.2089L17.82 23.9853L15.8442 17.8827L21.0354 14.1177Z" fill="white"/>
<path d="M16.2895 19.2616L15.8455 17.8816L12.6421 20.2084L16.2895 19.2616Z" fill="#00B67A"/>
<path d="M182.899 11.3413H196.088V13.7966H190.895V27.6363H188.048V13.7966H182.877L182.899 11.3413ZM195.523 15.8419H197.956V18.1231H197.999C198.093 17.7866 198.247 17.47 198.455 17.189C198.676 16.8727 198.946 16.5938 199.255 16.3629C199.565 16.1022 199.918 15.8966 200.298 15.7549C200.663 15.6009 201.054 15.5197 201.449 15.5158C201.749 15.5158 201.97 15.5378 202.079 15.5378C202.194 15.5628 202.31 15.5772 202.427 15.5808V18.0811C202.241 18.0399 202.052 18.0108 201.862 17.9941C201.675 17.969 201.486 17.9546 201.297 17.9511C200.871 17.9496 200.449 18.0386 200.059 18.2122C199.67 18.3931 199.323 18.6518 199.038 18.9722C198.732 19.3479 198.495 19.7745 198.338 20.2324C198.155 20.7933 198.067 21.3808 198.077 21.9706V27.5713H195.479L195.523 15.8419ZM214.382 27.6433H211.819V25.9921H211.775C211.442 26.5964 210.945 27.0938 210.34 27.4263C209.757 27.7781 209.089 27.9657 208.407 27.9694C207.796 28.0289 207.18 27.957 206.599 27.7585C206.018 27.5599 205.486 27.2393 205.04 26.8182C204.272 25.8293 203.9 24.59 203.997 23.3418V15.8419H206.604V23.0768C206.519 23.859 206.737 24.644 207.212 25.271C207.427 25.4942 207.688 25.668 207.977 25.7806C208.266 25.8932 208.576 25.9418 208.885 25.9231C209.355 25.9378 209.823 25.8486 210.254 25.6621C210.601 25.5123 210.907 25.2815 211.145 24.989C211.384 24.6889 211.555 24.3405 211.646 23.9679C211.753 23.5492 211.805 23.118 211.798 22.6857V15.8419H214.405V27.6433H214.382ZM218.814 23.8629C218.825 24.1799 218.909 24.4901 219.06 24.7692C219.211 25.0483 219.424 25.2885 219.684 25.4711C220.23 25.7861 220.853 25.9439 221.484 25.9271C221.76 25.9246 222.036 25.9029 222.31 25.8621C222.607 25.8258 222.899 25.753 223.179 25.6451C223.443 25.5505 223.676 25.3851 223.852 25.167C224.033 24.9414 224.118 24.6545 224.091 24.3669C224.087 24.2118 224.053 24.0589 223.99 23.9173C223.926 23.7756 223.835 23.648 223.722 23.5418C223.463 23.3213 223.169 23.1452 222.853 23.0207C222.457 22.8783 222.05 22.7692 221.636 22.6947C221.18 22.6077 220.724 22.4947 220.246 22.3947C219.768 22.2947 219.289 22.1556 218.833 22.0036C218.395 21.8643 217.983 21.6512 217.616 21.3735C217.256 21.1145 216.965 20.7711 216.769 20.3734C216.537 19.9083 216.425 19.3926 216.443 18.8732C216.418 18.2988 216.586 17.7325 216.921 17.265C217.234 16.8296 217.643 16.4725 218.116 16.2219C218.619 15.9499 219.162 15.7592 219.725 15.6569C220.276 15.5553 220.837 15.5044 221.398 15.5048C221.983 15.5032 222.566 15.5703 223.136 15.7048C223.671 15.8196 224.18 16.0333 224.636 16.3349C225.088 16.6205 225.468 17.0074 225.744 17.4651C226.058 17.9725 226.251 18.5448 226.309 19.1383H223.593C223.561 18.8763 223.468 18.6255 223.321 18.4065C223.174 18.1875 222.977 18.0064 222.746 17.8781C222.263 17.6536 221.736 17.5421 221.204 17.5521C221.03 17.5521 220.791 17.5741 220.552 17.5951C220.308 17.63 220.067 17.6882 219.835 17.7691C219.623 17.8531 219.431 17.9786 219.269 18.1381C219.19 18.222 219.127 18.3209 219.086 18.4291C219.045 18.5373 219.026 18.6526 219.03 18.7682C219.024 18.9113 219.051 19.0538 219.107 19.1854C219.163 19.317 219.249 19.4341 219.356 19.5283C219.616 19.7433 219.91 19.9124 220.226 20.0284C220.622 20.1708 221.029 20.2799 221.443 20.3544C221.899 20.4414 222.377 20.5544 222.855 20.6545C223.333 20.7545 223.789 20.8935 224.245 21.0455C224.686 21.1801 225.098 21.3935 225.462 21.6756C225.818 21.9368 226.114 22.2701 226.331 22.6537C226.561 23.1039 226.673 23.6048 226.657 24.1099C226.678 24.7379 226.512 25.3579 226.179 25.8911C225.857 26.3733 225.435 26.7809 224.941 27.0863C224.413 27.394 223.842 27.6212 223.247 27.7604C222.64 27.8956 222.021 27.9683 221.4 27.9774C220.703 27.9832 220.009 27.8954 219.335 27.7163C218.745 27.5608 218.186 27.3035 217.684 26.9562C217.227 26.6192 216.855 26.1802 216.598 25.6741C216.317 25.1064 216.169 24.4823 216.164 23.8489H218.793V23.8709L218.814 23.8629ZM227.396 15.8459H229.374V12.2824H231.983V15.8239H234.329V17.7571H231.983V24.0579C231.985 24.2975 231.999 24.5369 232.026 24.775C232.047 24.9492 232.099 25.1185 232.178 25.275C232.27 25.4082 232.398 25.5123 232.547 25.5751C232.772 25.6541 233.009 25.6911 233.247 25.6841C233.429 25.6876 233.61 25.6803 233.79 25.6621C233.973 25.6437 234.154 25.6147 234.333 25.5751V27.5953C234.051 27.6383 233.768 27.6603 233.486 27.6823C233.205 27.7189 232.922 27.7332 232.639 27.7253C232.082 27.741 231.525 27.6736 230.988 27.5253C230.621 27.4185 230.286 27.2246 230.01 26.9602C229.771 26.6964 229.606 26.3742 229.532 26.0261C229.443 25.5981 229.392 25.163 229.38 24.726V17.7721H227.403V15.8419L227.396 15.8459ZM236.153 15.8459H238.608V17.442H238.651C238.977 16.7923 239.513 16.2718 240.172 15.9649C240.839 15.6559 241.566 15.5001 242.301 15.5088C243.14 15.4825 243.974 15.6538 244.735 16.0089C245.407 16.3126 245.996 16.7749 246.451 17.356C246.922 17.9473 247.27 18.6276 247.472 19.3563C247.92 20.9014 247.935 22.5399 247.515 24.0929C247.32 24.8007 247.004 25.4696 246.581 26.0701C246.164 26.6419 245.621 27.1103 244.995 27.4393C244.297 27.7994 243.52 27.9785 242.735 27.9604C242.356 27.9564 241.978 27.9199 241.605 27.8514C241.232 27.7859 240.867 27.6765 240.519 27.5253C240.174 27.3768 239.852 27.1791 239.563 26.9383C239.272 26.7064 239.022 26.4271 238.824 26.1121H238.784V31.9999H236.174V15.8419L236.153 15.8459ZM245.254 21.7556C245.258 21.2337 245.185 20.714 245.037 20.2134C244.912 19.7361 244.698 19.2866 244.407 18.8882C244.132 18.5116 243.785 18.1939 243.385 17.9541C242.954 17.7148 242.467 17.5947 241.973 17.6061C241.499 17.576 241.025 17.6634 240.593 17.8606C240.161 18.0577 239.784 18.3585 239.496 18.7362C238.909 19.6387 238.62 20.7024 238.67 21.7776C238.66 22.3357 238.733 22.8922 238.887 23.4288C239.016 23.9013 239.237 24.3433 239.539 24.729C239.818 25.0922 240.174 25.389 240.582 25.5981C241.018 25.8226 241.504 25.9347 241.994 25.9241C242.519 25.9395 243.037 25.8119 243.495 25.5551C243.894 25.3147 244.241 24.9972 244.516 24.621C244.786 24.219 244.978 23.7693 245.081 23.2958C245.193 22.7876 245.251 22.269 245.255 21.7486L245.254 21.7556ZM249.838 11.3483H252.446V13.8036H249.838V11.3483ZM249.838 15.8489H252.446V27.6503H249.838V15.8489ZM254.77 11.3483H257.377V27.6433H254.77V11.3483ZM265.329 27.9694C264.465 27.9872 263.607 27.8244 262.809 27.4913C262.107 27.1928 261.472 26.7568 260.941 26.2092C260.423 25.6352 260.03 24.9598 259.787 24.2259C259.512 23.4209 259.373 22.5761 259.373 21.7256C259.362 20.8818 259.502 20.0427 259.787 19.2483C260.035 18.5191 260.426 17.8468 260.938 17.271C261.459 16.7118 262.097 16.274 262.806 15.9889C263.607 15.6661 264.463 15.5037 265.326 15.5108C266.19 15.493 267.049 15.6558 267.847 15.9889C268.553 16.2795 269.19 16.7165 269.715 17.271C270.231 17.8436 270.623 18.5168 270.866 19.2483C271.14 20.0454 271.28 20.8826 271.279 21.7256C271.292 22.5771 271.153 23.424 270.866 24.2259C270.609 24.9512 270.219 25.6219 269.715 26.2032C269.194 26.7624 268.556 27.2002 267.847 27.4853C267.048 27.8091 266.193 27.9713 265.331 27.9624L265.329 27.9694ZM265.329 25.9051C265.853 25.9149 266.37 25.7877 266.829 25.5361C267.245 25.3007 267.602 24.9738 267.873 24.58C268.153 24.1782 268.359 23.7293 268.481 23.2548C268.742 22.2649 268.742 21.2243 268.481 20.2344C268.363 19.7583 268.157 19.3087 267.873 18.9092C267.596 18.5268 267.24 18.2083 266.829 17.9751C266.369 17.726 265.853 17.5989 265.329 17.6061C264.806 17.596 264.288 17.7233 263.829 17.9751C263.419 18.209 263.063 18.5274 262.786 18.9092C262.502 19.3088 262.295 19.7584 262.178 20.2344C261.917 21.2243 261.917 22.2649 262.178 23.2548C262.297 23.7284 262.503 24.1756 262.787 24.5729C263.063 24.9619 263.419 25.2877 263.83 25.5291C264.287 25.7883 264.806 25.916 265.331 25.8981L265.329 25.9051ZM272.065 15.8459H274.042V12.2824H276.65V15.8239H278.996V17.7571H276.65V24.0579C276.651 24.2975 276.665 24.5369 276.693 24.775C276.714 24.9492 276.765 25.1185 276.845 25.275C276.937 25.4082 277.065 25.5123 277.214 25.5751C277.438 25.6541 277.676 25.6911 277.914 25.6841C278.095 25.6876 278.276 25.6803 278.457 25.6621C278.639 25.6437 278.821 25.6147 279 25.5751V27.5953C278.718 27.6383 278.435 27.6603 278.153 27.6823C277.872 27.7189 277.589 27.7332 277.306 27.7253C276.748 27.741 276.192 27.6736 275.655 27.5253C275.288 27.4185 274.952 27.2246 274.676 26.9602C274.438 26.6964 274.273 26.3742 274.198 26.0261C274.109 25.5981 274.059 25.163 274.046 24.726V17.7721H272.069V15.8419L272.065 15.8459Z" fill="white"/>
<path d="M179.857 11.3417H167.928L164.257 0.000244141L160.563 11.3417L148.635 11.3197L158.282 18.3375L154.589 29.6789L164.236 22.6611L173.883 29.6789L170.211 18.3375L179.857 11.3417Z" fill="#00B67A"/>
<path d="M171.036 20.9022L170.21 18.3389L164.257 22.6614L171.036 20.9022Z" fill="#005128"/>
</svg>
