<svg width="126" height="32" viewBox="0 0 126 32" fill="none" xmlns="http://www.w3.org/2000/svg">
<path d="M16.0037 0H10.8837C7.9277 0 5.1667 1.7 3.1107 4.784C1.0079 8.14165 -0.0717055 12.039 0.00369641 16C-0.0717055 19.961 1.0079 23.8583 3.1107 27.216C5.1667 30.3 7.9277 32 10.8837 32H16.0037C18.9597 32 21.7207 30.3 23.7767 27.216C25.8795 23.8583 26.9591 19.961 26.8837 16C26.9591 12.039 25.8795 8.14165 23.7767 4.784C21.7207 1.7 18.9597 0 16.0037 0ZM10.8837 1.28C11.1357 1.27998 11.3875 1.29501 11.6377 1.325C10.5975 2.00667 9.67798 2.8566 8.9167 3.84H5.4797C6.15628 3.06598 6.98476 2.43931 7.91371 1.99893C8.84265 1.55854 9.85221 1.31383 10.8797 1.28M4.4237 5.12H8.0167C7.26748 6.32333 6.66613 7.61265 6.2257 8.96H2.4547C2.93019 7.59506 3.59285 6.30273 4.4237 5.12ZM2.0497 10.24H5.8497C5.41802 11.914 5.17881 13.6318 5.1367 15.36H1.2937C1.33741 13.629 1.59127 11.9097 2.0497 10.24ZM1.2937 16.64H5.1337C5.17581 18.3682 5.41502 20.086 5.8467 21.76H2.0467C1.58827 20.0903 1.33441 18.371 1.2907 16.64M4.4237 26.88C3.59284 25.6973 2.93018 24.4049 2.4547 23.04H6.2247C6.66545 24.3874 7.26713 25.6767 8.0167 26.88H4.4237ZM10.8837 30.72C9.85621 30.6862 8.84665 30.4415 7.91771 30.0011C6.98876 29.5607 6.16028 28.934 5.4837 28.16H8.9167C9.67828 29.1435 10.5982 29.9934 11.6387 30.675C11.3885 30.705 11.1357 30.72 10.8837 30.72ZM16.0047 30.72C15.7527 30.72 15.5009 30.705 15.2507 30.675C14.6287 30.5989 14.0206 30.4349 13.4447 30.188C9.3887 28.466 6.4037 22.758 6.4037 16C6.4037 9.242 9.3887 3.534 13.4437 1.812C14.0196 1.56508 14.6277 1.40112 15.2497 1.325C15.4999 1.29501 15.7517 1.27998 16.0037 1.28C21.2977 1.28 25.6037 7.88 25.6037 16C25.6037 24.12 21.2987 30.72 16.0047 30.72Z" fill="white"/>
<path d="M20.0537 11.4571L16.5087 12.3821L17.0297 7.29408C17.0381 7.20666 17.0273 7.11846 16.9979 7.03569C16.9685 6.95293 16.9213 6.87762 16.8597 6.81508C16.8039 6.75584 16.7335 6.71229 16.6556 6.68878C16.5777 6.66526 16.4949 6.66261 16.4157 6.68108L12.2507 7.76708C12.1559 7.79552 12.0726 7.8534 12.0129 7.93233C11.9532 8.01126 11.9202 8.10714 11.9187 8.20608L11.3377 17.8831C11.3329 17.9686 11.3465 18.0542 11.3775 18.1341C11.4086 18.2139 11.4563 18.2862 11.5177 18.3461C11.5733 18.4027 11.6425 18.444 11.7187 18.466C11.7949 18.4881 11.8754 18.4902 11.9527 18.4721L16.0797 17.3961L16.4797 24.7961C16.4834 24.9183 16.5268 25.036 16.6033 25.1314C16.6798 25.2268 16.7852 25.2948 16.9037 25.3251C16.9665 25.3397 17.0318 25.3397 17.0947 25.3251C17.1728 25.3028 17.2434 25.2598 17.299 25.2006C17.3546 25.1415 17.3932 25.0684 17.4107 24.9891L20.6577 12.1551C20.6795 12.0631 20.6794 11.9672 20.6571 11.8752C20.6349 11.7833 20.5912 11.6979 20.5297 11.6261C20.4744 11.5574 20.4009 11.5056 20.3177 11.4766C20.2344 11.4476 20.1447 11.4426 20.0587 11.4621" fill="white"/>
<path d="M48.2667 11.9211C48.2107 12.1817 48.1524 12.4331 48.0917 12.6751C48.0311 12.9171 47.9727 13.1477 47.9167 13.3671C47.8636 13.5651 47.8354 13.769 47.8327 13.9741C47.8327 14.0674 47.7444 14.1791 47.5677 14.3091C47.373 14.4508 47.1674 14.5769 46.9527 14.6861C46.72 14.8074 46.4917 14.9171 46.2677 15.0151C46.1128 15.086 45.9542 15.1487 45.7927 15.2031C45.504 15.2784 45.2177 15.3507 44.9337 15.4201C44.6497 15.4894 44.3634 15.5661 44.0747 15.6501C44.3634 15.8274 44.6451 16.0021 44.9197 16.1741C45.1944 16.3461 45.476 16.5161 45.7647 16.6841L46.1347 16.9011C46.2681 16.9804 46.4014 17.0644 46.5347 17.1531C46.6611 17.238 46.7761 17.3388 46.8767 17.4531C46.9716 17.5616 47.0401 17.6906 47.0767 17.8301C47.2011 18.2509 47.276 18.6849 47.2997 19.1231C47.3277 19.5844 47.3417 20.0291 47.3417 20.4571C47.3416 20.8915 47.3673 21.3256 47.4187 21.7571C47.47 22.1857 47.5191 22.6234 47.5657 23.0701C47.6124 23.4247 47.6521 23.7811 47.6847 24.1391C47.7174 24.4971 47.757 24.8531 47.8037 25.2071C47.337 25.1324 46.8877 25.0717 46.4557 25.0251C46.008 24.9777 45.558 24.9543 45.1077 24.9551C44.8657 24.9551 44.6304 24.9504 44.4017 24.9411C44.1731 24.9317 43.9424 24.9177 43.7097 24.8991C43.8431 24.4324 43.9524 23.9657 44.0377 23.4991C44.1262 23.0339 44.1708 22.5615 44.1707 22.0881C44.1707 21.6321 44.1661 21.1757 44.1567 20.7191C44.1474 20.2624 44.1427 19.8061 44.1427 19.3501C44.1341 19.0972 44.0771 18.8484 43.9747 18.6171C43.8858 18.3811 43.7584 18.1614 43.5977 17.9671C43.4722 17.8924 43.3313 17.8473 43.1857 17.8351C42.9577 17.7931 42.7084 17.7557 42.4377 17.7231C42.167 17.6904 41.9134 17.6647 41.6767 17.6461C41.4394 17.6274 41.2881 17.6134 41.2227 17.6041C41.2414 18.3961 41.2747 19.1831 41.3227 19.9651C41.3707 20.7471 41.394 21.5341 41.3927 22.3261C41.3922 22.5344 41.4086 22.7424 41.4417 22.9481C41.4744 23.1481 41.514 23.3504 41.5607 23.5551C41.132 23.4804 40.7127 23.4177 40.3027 23.3671C39.8764 23.3148 39.4472 23.2891 39.0177 23.2901H38.3257C38.0977 23.2901 37.8717 23.2811 37.6477 23.2621C37.7754 22.819 37.8641 22.3656 37.9127 21.9071C37.9594 21.4597 37.9897 21.0127 38.0037 20.5661C38.0177 20.1194 38.0247 19.6724 38.0247 19.2251C38.0247 18.7777 38.0387 18.3214 38.0667 17.8561C38.1134 17.1294 38.1391 16.4007 38.1437 15.6701C38.1484 14.9394 38.1507 14.2104 38.1507 13.4831C38.1507 12.7497 38.1174 12.0231 38.0507 11.3031C37.9841 10.5831 37.9507 9.8564 37.9507 9.12306C37.9501 8.81848 37.922 8.51458 37.8667 8.21506C37.8129 7.92949 37.7848 7.63966 37.7827 7.34906C37.7731 7.23947 37.7422 7.13282 37.6917 7.03506C37.631 6.90173 37.5824 6.79673 37.5457 6.72006C37.8124 6.7014 38.0847 6.6874 38.3627 6.67806C38.6377 6.66906 38.9097 6.66406 39.1797 6.66406C39.6985 6.66393 40.2167 6.69902 40.7307 6.76906C41.2402 6.83714 41.7537 6.87054 42.2677 6.86906C42.564 6.86941 42.8602 6.85339 43.1547 6.82106C43.4492 6.78831 43.7454 6.77195 44.0417 6.77206C44.2526 6.77881 44.4627 6.79986 44.6707 6.83506C44.95 6.87706 45.2364 6.93506 45.5297 7.00906C45.8026 7.07742 46.07 7.166 46.3297 7.27406C46.5152 7.33355 46.6768 7.45097 46.7907 7.60906C46.9814 7.94157 47.2063 8.25326 47.4617 8.53906C47.7188 8.82677 47.9352 9.14844 48.1047 9.49506C48.1662 9.60342 48.2088 9.72143 48.2307 9.84406C48.2587 9.98406 48.2817 10.1311 48.3007 10.2851C48.3197 10.4391 48.3307 10.5851 48.3357 10.7321C48.3407 10.8791 48.3427 10.9991 48.3427 11.1021C48.3434 11.3743 48.3153 11.6458 48.2587 11.9121M44.5767 11.0951C44.5318 10.8941 44.4758 10.6958 44.4087 10.5011C44.3437 10.3091 44.2689 10.1205 44.1847 9.93606C44.1384 9.80803 44.059 9.69453 43.9547 9.60706C43.8631 9.55703 43.7586 9.53544 43.6547 9.54506C43.5287 9.54506 43.4287 9.55206 43.3547 9.55206C43.1594 9.55206 42.9567 9.56139 42.7467 9.58006C42.5367 9.59906 42.3297 9.60806 42.1247 9.60806C41.9574 9.60806 41.7907 9.60339 41.6247 9.59406C41.4587 9.58473 41.2887 9.57073 41.1147 9.55206C41.1142 9.91234 41.0861 10.2721 41.0307 10.6281C40.9753 10.9841 40.9472 11.3438 40.9467 11.7041C40.947 12.1943 40.9751 12.684 41.0307 13.1711C41.0867 13.6651 41.1381 14.1494 41.1847 14.6241C41.3459 14.5296 41.5129 14.4454 41.6847 14.3721C41.9127 14.2694 42.155 14.1717 42.4117 14.0791C42.6684 13.9864 42.9154 13.9051 43.1527 13.8351C43.3222 13.7779 43.4983 13.7426 43.6767 13.7301C43.7811 13.7349 43.8851 13.7145 43.98 13.6706C44.0749 13.6268 44.1578 13.5607 44.2217 13.4781C44.358 13.2977 44.4554 13.091 44.5077 12.8711C44.5688 12.6306 44.6063 12.3848 44.6197 12.1371C44.6337 11.8851 44.6407 11.6811 44.6407 11.5221C44.6337 11.3783 44.6125 11.2357 44.5777 11.0961" fill="white"/>
<path d="M57.8867 24.391C57.4617 24.3485 57.0348 24.3275 56.6077 24.328C56.2077 24.328 55.8097 24.3397 55.4137 24.363C55.0177 24.3864 54.6147 24.4197 54.2047 24.463C54.1498 23.9619 54.1218 23.4582 54.1207 22.954C54.1207 22.7494 54.1277 22.5517 54.1417 22.361C54.1565 22.1656 54.1869 21.9716 54.2327 21.781C53.7574 21.8277 53.2907 21.872 52.8327 21.914C52.3713 21.9567 51.9137 22.0336 51.4637 22.144C51.3847 22.3113 51.3178 22.4841 51.2637 22.661C51.2133 22.8245 51.1759 22.9917 51.1517 23.161C51.1283 23.3301 51.1143 23.5004 51.1097 23.671C51.105 23.843 51.098 24.022 51.0887 24.208C50.418 24.264 49.7474 24.306 49.0767 24.334C48.4061 24.362 47.7307 24.404 47.0507 24.46C47.3174 23.7807 47.6014 23.108 47.9027 22.442C48.204 21.776 48.4951 21.1074 48.7757 20.436C49.0597 19.7654 49.3297 19.0877 49.5857 18.403C49.8428 17.7162 50.0599 17.015 50.2357 16.303C50.4216 15.5739 50.6462 14.8552 50.9087 14.15C51.1694 13.4467 51.4464 12.7504 51.7397 12.061C52.033 11.3717 52.333 10.685 52.6397 10.001C52.947 9.31636 53.2404 8.62469 53.5197 7.92603C54.0417 9.31403 54.5237 10.6997 54.9657 12.083C55.4077 13.4664 55.792 14.875 56.1187 16.309C56.2482 16.8375 56.4092 17.3578 56.6007 17.867C56.7914 18.375 56.9847 18.8894 57.1807 19.41C57.5067 20.2574 57.8401 21.1027 58.1807 21.946C58.5214 22.7894 58.8404 23.6484 59.1377 24.523C58.7184 24.4764 58.3017 24.4324 57.8877 24.391M53.2977 14.883L52.2637 19.256L53.8707 19.056L53.2977 14.883Z" fill="white"/>
<path d="M69.5667 10.824C69.534 11.1466 69.5177 11.4707 69.5177 11.795C69.5175 12.0542 69.5315 12.3133 69.5597 12.571C69.5875 12.8237 69.6015 13.0777 69.6017 13.332H69.1167C68.6549 13.3513 68.1924 13.3326 67.7337 13.276C67.2749 13.2193 66.813 13.1913 66.3507 13.192C66.1708 13.1921 65.9911 13.1807 65.8127 13.158C65.6307 13.135 65.4567 13.109 65.2887 13.081C65.3496 13.3951 65.3941 13.7122 65.4217 14.031C65.4544 14.3856 65.4777 14.749 65.4917 15.121C65.5057 15.493 65.5127 15.8633 65.5127 16.232V17.232C65.5118 17.6956 65.5516 18.1583 65.6317 18.615C65.7113 19.0669 65.7511 19.525 65.7507 19.984C65.7507 20.1986 65.746 20.4106 65.7367 20.62C65.7274 20.8293 65.7227 21.0363 65.7227 21.241C65.7222 21.8989 65.7757 22.5558 65.8827 23.205C65.9881 23.8449 66.1351 24.4772 66.3227 25.098C66.0527 25.098 65.7827 25.0933 65.5127 25.084C65.2427 25.0746 64.976 25.07 64.7127 25.07C64.1113 25.0706 63.5104 25.1039 62.9127 25.17C62.3167 25.2366 61.725 25.2926 61.1377 25.338L61.1097 24.877C61.1002 24.4919 61.1212 24.1067 61.1727 23.725C61.224 23.3476 61.2843 22.9703 61.3537 22.593C61.423 22.2156 61.4897 21.8383 61.5537 21.461C61.619 21.0842 61.6611 20.7039 61.6797 20.322C61.726 19.7271 61.7377 19.1301 61.7147 18.534C61.6914 17.9473 61.6797 17.3606 61.6797 16.774C61.6797 16.476 61.6937 16.1826 61.7217 15.894C61.7497 15.6053 61.783 15.3213 61.8217 15.042C61.8637 14.7626 61.9057 14.4786 61.9477 14.19C61.9897 13.9013 62.02 13.608 62.0387 13.31H61.8987C61.5269 13.2818 61.153 13.3054 60.7877 13.38C60.4197 13.4546 60.0587 13.529 59.7047 13.603C59.557 13.6937 59.3935 13.7555 59.2227 13.785C58.9854 13.841 58.7317 13.89 58.4617 13.932C58.1917 13.974 57.931 14.0073 57.6797 14.032C57.4277 14.06 57.2417 14.079 57.1207 14.088C57.1953 13.79 57.2673 13.49 57.3367 13.188C57.4052 12.8828 57.4387 12.5708 57.4367 12.258C57.4367 11.7086 57.418 11.159 57.3807 10.609C57.3433 10.059 57.3247 9.50929 57.3247 8.95996L58.5197 9.35096C58.9157 9.4843 59.3157 9.6033 59.7197 9.70796C60.1237 9.81263 60.5314 9.90096 60.9427 9.97296C61.3535 10.0413 61.7693 10.0747 62.1857 10.073H68.6547C68.8239 10.0685 68.9918 10.043 69.1547 9.99696C69.35 9.94563 69.513 9.89663 69.6437 9.84996C69.6157 10.1766 69.5853 10.5006 69.5527 10.822" fill="white"/>
<path d="M79.1877 12.333L78.3707 12.233C78.104 12.2003 77.834 12.1747 77.5607 12.156C77.2874 12.1373 76.9824 12.128 76.6457 12.128C76.2092 12.1274 75.7731 12.1531 75.3397 12.205C74.9109 12.2562 74.4795 12.2816 74.0477 12.281C73.8911 12.2814 73.7346 12.2701 73.5797 12.247C73.4257 12.2237 73.2697 12.198 73.1117 12.17C73.1846 12.5836 73.2313 13.0015 73.2517 13.421C73.2703 13.8263 73.2797 14.2477 73.2797 14.685C73.2797 14.8523 73.2843 15.027 73.2937 15.209C73.303 15.391 73.317 15.57 73.3357 15.746C73.8944 15.662 74.4207 15.5953 74.9147 15.546C75.4087 15.4967 75.8954 15.4527 76.3747 15.414C76.854 15.372 77.3407 15.3253 77.8347 15.274C78.3287 15.2227 78.8504 15.156 79.3997 15.074L79.5397 18.174C79.307 18.1653 79.0927 18.1587 78.8967 18.154C78.7007 18.1493 78.5097 18.1377 78.3237 18.119C78.1377 18.1003 77.949 18.0723 77.7577 18.035C77.5667 17.998 77.3507 17.946 77.1077 17.881C76.8533 17.8116 76.5943 17.7602 76.3327 17.727C76.0487 17.6903 75.76 17.6623 75.4667 17.643C75.1733 17.6237 74.8824 17.6097 74.5937 17.601C74.3047 17.592 74.0397 17.582 73.7937 17.573L73.6397 21.262H74.7297C75.1857 21.262 75.6093 21.248 76.0007 21.22C76.392 21.192 76.7787 21.162 77.1607 21.13C77.5427 21.0973 77.9293 21.067 78.3207 21.039C78.712 21.011 79.136 20.997 79.5927 20.997L79.6927 24.155C79.3947 24.1363 79.1223 24.1203 78.8757 24.107C78.629 24.0936 78.389 24.082 78.1557 24.072L77.4337 24.048C77.1867 24.039 76.9147 24.034 76.6157 24.034C76.2617 24.034 75.8867 24.0363 75.4907 24.041C75.1127 24.0435 74.7359 24.083 74.3657 24.159C73.8422 24.2735 73.3085 24.3345 72.7727 24.341C72.2133 24.3503 71.6824 24.355 71.1797 24.355C70.891 24.355 70.6117 24.3503 70.3417 24.341C70.0717 24.332 69.8017 24.327 69.5317 24.327C69.5983 24.1597 69.687 23.9293 69.7977 23.636C69.9084 23.3426 70.02 23.0327 70.1327 22.706C70.2447 22.38 70.3424 22.0633 70.4257 21.756C70.4979 21.5199 70.5403 21.2756 70.5517 21.029C70.5517 20.3777 70.533 19.728 70.4957 19.08C70.4584 18.432 70.4164 17.7847 70.3697 17.138C70.323 16.4907 70.281 15.8433 70.2437 15.196C70.2063 14.5487 70.1877 13.8987 70.1877 13.246C70.1877 12.6407 70.1924 12.0377 70.2017 11.437C70.211 10.8363 70.225 10.2283 70.2437 9.61299C70.485 9.70611 70.7322 9.78328 70.9837 9.84399C71.2355 9.90434 71.4937 9.93456 71.7527 9.93399H71.9627C72.5773 9.83132 73.1897 9.73832 73.7997 9.65499C74.4038 9.57146 75.0129 9.52936 75.6227 9.52899C76.0047 9.52899 76.3774 9.51265 76.7407 9.47998C77.104 9.44732 77.465 9.40532 77.8237 9.35398C78.1824 9.30265 78.541 9.24665 78.8997 9.18599C79.2584 9.12532 79.625 9.06699 79.9997 9.01099C79.981 9.21565 79.967 9.41832 79.9577 9.61898C79.9483 9.81965 79.9437 10.0173 79.9437 10.212C79.9447 10.5795 79.9658 10.9467 80.0067 11.312C80.0487 11.6947 80.082 12.0613 80.1067 12.412C79.7734 12.384 79.466 12.354 79.1847 12.322" fill="white"/>
<path d="M91.0657 13.1361C91.0377 13.4347 90.998 13.7654 90.9467 14.1281C90.8954 14.4907 90.835 14.8657 90.7657 15.2531C90.699 15.6397 90.6221 16.0031 90.5347 16.3431C90.4616 16.6473 90.3731 16.9477 90.2697 17.2431C90.2079 17.4434 90.1137 17.6323 89.9907 17.8021C89.8574 17.9421 89.7037 18.1087 89.5297 18.3021C89.3493 18.5011 89.158 18.6901 88.9567 18.8681C88.764 19.0405 88.5558 19.1949 88.3347 19.3291C88.1531 19.4463 87.9428 19.5113 87.7267 19.5171C87.5034 19.5133 87.2811 19.4878 87.0627 19.4411C86.8067 19.3897 86.5401 19.3291 86.2627 19.2591C85.9854 19.1891 85.7187 19.1147 85.4627 19.0361C85.202 18.9567 84.9737 18.8901 84.7777 18.8361C84.7964 19.8234 84.8337 20.8131 84.8897 21.8051C84.9457 22.7971 84.983 23.7914 85.0017 24.7881C84.6576 24.667 84.3016 24.5825 83.9397 24.5361C83.5764 24.4894 83.2131 24.4561 82.8497 24.4361C82.4864 24.4161 82.1231 24.3881 81.7597 24.3521C81.3964 24.3194 81.0364 24.2562 80.6837 24.1631C80.7584 23.8471 80.8327 23.5237 80.9067 23.1931C80.9806 22.8683 81.032 22.5389 81.0607 22.2071C81.0785 22.0301 81.112 21.8551 81.1607 21.6841C81.2074 21.5207 81.2564 21.3624 81.3077 21.2091C81.359 21.0557 81.4104 20.8994 81.4617 20.7401C81.5135 20.578 81.5441 20.41 81.5527 20.2401C81.6087 19.6907 81.642 19.1411 81.6527 18.5911C81.6634 18.0411 81.6681 17.4961 81.6667 16.9561C81.6667 16.7421 81.6597 16.5261 81.6457 16.3071C81.6317 16.0884 81.6013 15.8712 81.5547 15.6571C81.4821 15.2557 81.4376 14.8497 81.4217 14.4421C81.4077 14.0507 81.4007 13.6454 81.4007 13.2261C81.4 12.4436 81.3486 11.6619 81.2467 10.8861C81.1441 10.0987 81.0371 9.32308 80.9257 8.55908C81.0988 8.63172 81.2792 8.6857 81.4637 8.72008C81.673 8.76208 81.8874 8.79541 82.1067 8.82008C82.3261 8.84475 82.5427 8.86075 82.7567 8.86808C82.9707 8.87741 83.1617 8.88208 83.3297 8.88208C83.9724 8.88208 84.6151 8.86808 85.2577 8.84008C85.9004 8.81208 86.5431 8.79808 87.1857 8.79808C87.647 8.80563 88.1015 8.91024 88.5197 9.10508C88.9829 9.31133 89.4119 9.58719 89.7917 9.92308C90.1721 10.2551 90.4934 10.6494 90.7417 11.0891C90.9826 11.5052 91.1102 11.9772 91.1117 12.4581C91.1117 12.6171 91.0977 12.8441 91.0697 13.1431M87.5487 14.1631C87.5394 13.9491 87.5254 13.7234 87.5067 13.4861C87.488 13.2487 87.4647 13.0321 87.4367 12.8361C87.429 12.7158 87.4006 12.5977 87.3527 12.4871C87.2196 12.3787 87.0609 12.3064 86.8917 12.2771C86.6311 12.2024 86.3424 12.1257 86.0257 12.0471C85.7091 11.9684 85.4041 11.8984 85.1107 11.8371C84.8174 11.7764 84.6054 11.7274 84.4747 11.6901C84.5027 12.4354 84.5307 13.1784 84.5587 13.9191C84.5867 14.6597 84.6147 15.4024 84.6427 16.1471C84.9127 16.1751 85.1851 16.2101 85.4597 16.2521C85.7394 16.2941 86.0219 16.3148 86.3047 16.3141C86.3937 16.3112 86.4815 16.2922 86.5637 16.2581C86.6649 16.2192 86.7629 16.1724 86.8567 16.1181C86.9535 16.0629 87.047 16.0021 87.1367 15.9361C87.2131 15.8809 87.2853 15.82 87.3527 15.7541C87.4155 15.6853 87.459 15.6011 87.4787 15.5101C87.5072 15.4 87.5282 15.288 87.5417 15.1751C87.5553 15.0639 87.5623 14.9521 87.5627 14.8401V14.5811C87.5627 14.5144 87.5581 14.3757 87.5487 14.1631Z" fill="white"/>
<path d="M101.051 14.2331C100.978 15.4484 100.942 16.6661 100.942 17.8861C100.941 18.1686 100.956 18.451 100.984 18.7321C101.012 19.0129 101.026 19.2949 101.026 19.5771C101.026 19.6891 101.012 19.8684 100.984 20.1151C100.956 20.3617 100.918 20.6434 100.872 20.9601C100.825 21.2767 100.771 21.6051 100.711 21.9451C100.65 22.2851 100.583 22.6017 100.511 22.8951C100.448 23.1508 100.37 23.4028 100.28 23.6501C100.24 23.7973 100.16 23.9305 100.049 24.0341C99.8813 24.1461 99.6927 24.2651 99.4827 24.3911C99.2752 24.5155 99.0605 24.6274 98.8397 24.7261C98.6241 24.8224 98.4023 24.9039 98.1757 24.9701C97.9672 25.0338 97.7507 25.0675 97.5327 25.0701C97.2706 25.0556 97.012 25.0037 96.7646 24.9161C96.4386 24.8134 96.101 24.6877 95.7516 24.5391C95.4023 24.3904 95.0713 24.2381 94.7587 24.0821C94.4467 23.9281 94.2067 23.7997 94.0387 23.6971C93.5209 23.4027 93.0858 22.9824 92.7737 22.4751C92.4682 21.9699 92.2418 21.4208 92.1027 20.8471C91.9575 20.254 91.8711 19.6481 91.8447 19.0381C91.8167 18.4187 91.8027 17.8341 91.8027 17.2841C91.8027 16.7441 91.8284 16.2064 91.8797 15.6711C91.931 15.1357 91.987 14.5977 92.0477 14.0571C92.1083 13.5171 92.1644 12.9767 92.2157 12.4361C92.267 11.8954 92.2927 11.3551 92.2927 10.8151C92.2928 10.5581 92.2741 10.3014 92.2367 10.0471C92.1994 9.79574 92.1527 9.53941 92.0967 9.27808C92.386 9.30608 92.673 9.33174 92.9577 9.35508C93.2424 9.37841 93.5293 9.39008 93.8187 9.39008C94.2866 9.38891 94.754 9.36086 95.2187 9.30608C95.0632 9.86546 94.9387 10.433 94.8457 11.0061C94.7384 11.6487 94.6493 12.3101 94.5787 12.9901C94.508 13.6701 94.454 14.3387 94.4167 14.9961C94.3794 15.6527 94.3607 16.2417 94.3607 16.7631C94.3607 16.9031 94.363 17.1151 94.3677 17.3991C94.3723 17.6831 94.3863 17.9974 94.4097 18.3421C94.433 18.6867 94.4633 19.0407 94.5007 19.4041C94.5343 19.745 94.5881 20.0835 94.6617 20.4181C94.7186 20.6933 94.8051 20.9615 94.9197 21.2181C94.9864 21.3995 95.1218 21.5475 95.2967 21.6301C95.418 21.6581 95.5414 21.6814 95.6667 21.7001C95.7938 21.7191 95.9221 21.7284 96.0507 21.7281C96.1805 21.7255 96.3095 21.7067 96.4347 21.6721C96.5771 21.636 96.7135 21.5794 96.8397 21.5041C96.9605 21.4339 97.067 21.3416 97.1537 21.2321C97.237 21.1265 97.2815 20.9955 97.2797 20.8611C97.2791 20.3935 97.3025 19.9262 97.3497 19.4611C97.3964 19.0016 97.4197 18.54 97.4197 18.0781C97.4197 17.0907 97.3917 16.1057 97.3357 15.1231C97.2797 14.1404 97.2516 13.1404 97.2516 12.1231C97.2516 11.8254 97.2798 11.5284 97.3357 11.2361C97.3915 10.9436 97.4103 10.6453 97.3917 10.3481C98.037 10.3947 98.6867 10.4281 99.3407 10.4481C99.9947 10.4681 100.644 10.5147 101.29 10.5881C101.202 11.7987 101.122 13.0121 101.05 14.2281" fill="white"/>
<path d="M113.223 10.908C113.139 11.332 113.059 11.7533 112.985 12.172C112.874 12.8339 112.801 13.5017 112.768 14.172C112.735 14.8333 112.672 15.5 112.58 16.172C112.477 17.0387 112.358 17.9003 112.224 18.757C112.089 19.6171 112.022 20.4865 112.024 21.357C112.024 21.9437 112.052 22.535 112.108 23.131C112.164 23.727 112.201 24.3183 112.22 24.905C111.53 24.8583 110.848 24.825 110.173 24.805C109.497 24.785 108.815 24.7407 108.127 24.672C108.173 24.188 108.217 23.7037 108.259 23.219C108.3 22.7343 108.321 22.25 108.322 21.766C108.327 21.2233 108.269 20.6819 108.147 20.153C108.034 19.6806 107.866 19.2232 107.647 18.79C107.422 18.352 107.16 17.9338 106.865 17.54C106.562 17.1347 106.229 16.7083 105.865 16.261C105.846 16.7637 105.839 17.269 105.844 17.777C105.849 18.2756 105.809 18.7736 105.725 19.265C105.622 19.8797 105.524 20.485 105.432 21.081C105.338 21.6865 105.291 22.2983 105.292 22.911C105.291 23.1468 105.303 23.3824 105.327 23.617C105.35 23.845 105.383 24.0753 105.427 24.308C105.147 24.308 104.861 24.3127 104.568 24.322C104.274 24.3313 103.983 24.336 103.695 24.336C103.421 24.336 103.147 24.3105 102.878 24.26C102.603 24.2087 102.331 24.1457 102.061 24.071C102.228 22.665 102.389 21.263 102.543 19.865C102.698 18.45 102.775 17.0275 102.774 15.604C102.773 15.0668 102.739 14.5302 102.674 13.997C102.607 13.457 102.528 12.9147 102.436 12.37C102.344 11.8253 102.244 11.2803 102.136 10.735C102.028 10.1903 101.933 9.65701 101.849 9.13501C102.263 9.19912 102.681 9.23255 103.1 9.23501H104.35C104.676 9.23501 104.999 9.24435 105.321 9.26301L106.292 9.31901C106.405 9.69467 106.494 10.0775 106.557 10.465C106.631 10.903 106.708 11.3433 106.788 11.786C106.868 12.2287 106.958 12.65 107.06 13.05C107.141 13.3959 107.268 13.7295 107.437 14.042C107.665 14.4573 107.92 14.8581 108.198 15.242C108.472 15.6187 108.722 16.0128 108.945 16.422C109.121 16.7387 109.294 17.053 109.462 17.365C109.63 17.677 109.793 17.9913 109.951 18.308C110.007 17.5167 110.058 16.725 110.105 15.933C110.151 15.141 110.175 14.3493 110.175 13.558C110.18 12.846 110.091 12.1365 109.91 11.448C109.722 10.7658 109.498 10.0941 109.239 9.43601C109.593 9.44535 109.944 9.46168 110.294 9.48501C110.643 9.50835 110.995 9.53368 111.349 9.56101C111.703 9.58901 112.057 9.61468 112.411 9.63801C112.765 9.66135 113.119 9.66835 113.473 9.65901C113.389 10.0783 113.305 10.5 113.221 10.924" fill="white"/>
<path d="M123.744 11.5501C123.277 12.0761 122.807 12.5951 122.333 13.1071C121.859 13.6191 121.384 14.1341 120.908 14.6521C120.433 15.1687 119.977 15.7021 119.539 16.2521C119.613 16.3454 119.747 16.5061 119.939 16.7341L120.589 17.5091C120.831 17.7977 121.082 18.1031 121.343 18.4251L122.07 19.3191C122.293 19.5937 122.479 19.8287 122.629 20.0241C122.728 20.1359 122.808 20.2632 122.866 20.4011C122.954 20.7328 123.073 21.0556 123.222 21.3651C123.366 21.6637 123.52 21.9524 123.683 22.2311C123.845 22.5097 124.004 22.7937 124.158 23.0831C124.315 23.3793 124.449 23.6876 124.558 24.0051C123.915 24.0331 123.307 24.0704 122.735 24.1171C122.132 24.169 121.536 24.2765 120.953 24.4381C120.857 23.7935 120.707 23.1579 120.506 22.5381C120.293 21.9089 119.987 21.3152 119.598 20.7771C119.21 20.2348 118.86 19.6668 118.55 19.0771C118.242 18.4904 117.926 17.9034 117.6 17.3161C117.581 17.6707 117.553 18.0201 117.516 18.3641C117.478 18.7121 117.46 19.062 117.46 19.4121C117.46 19.858 117.483 20.3036 117.53 20.7471C117.576 21.1897 117.635 21.6274 117.705 22.0601C117.775 22.4927 117.847 22.9261 117.921 23.3601C117.995 23.7934 118.062 24.2287 118.121 24.6661H117.716C117.429 24.6754 117.141 24.6614 116.857 24.6241C116.573 24.5867 116.289 24.5427 116.005 24.4921L115.153 24.3381C114.864 24.2863 114.573 24.2559 114.28 24.2471C114.354 23.3904 114.454 22.5361 114.58 21.6841C114.706 20.8259 114.769 19.9595 114.769 19.0921C114.769 18.3094 114.735 17.4734 114.669 16.5841C114.602 15.6947 114.511 14.7911 114.397 13.8731C114.285 12.9557 114.161 12.0521 114.027 11.1621C113.892 10.2721 113.759 9.43608 113.627 8.65408C113.925 8.71008 114.23 8.75674 114.542 8.79408C114.855 8.83145 115.17 8.85015 115.485 8.85007C115.894 8.85007 116.309 8.84074 116.729 8.82207C117.14 8.80561 117.545 8.70594 117.917 8.52908V10.3031C117.917 10.6813 117.896 11.0592 117.854 11.4351C117.812 11.8077 117.767 12.1781 117.721 12.5461C117.674 12.9141 117.63 13.2841 117.588 13.6561C117.546 14.0273 117.525 14.4005 117.525 14.7741C117.525 14.8741 117.525 14.9741 117.532 15.0741C117.537 15.1756 117.554 15.2761 117.581 15.3741C117.963 14.7967 118.31 14.2377 118.622 13.6971C118.934 13.1564 119.227 12.6141 119.502 12.0701C119.776 11.5254 120.035 10.9641 120.278 10.3861C120.52 9.80807 120.758 9.18874 120.991 8.52808C121.314 8.69469 121.648 8.83935 121.991 8.96107C122.331 9.08241 122.671 9.19207 123.011 9.29007L124.038 9.58308C124.382 9.68108 124.727 9.79041 125.072 9.91108C124.662 10.4791 124.224 11.0264 123.759 11.5531" fill="white"/>
</svg>
