<svg width="24" height="24" viewBox="0 0 24 24" fill="none" xmlns="http://www.w3.org/2000/svg">
<g clip-path="url(#clip0_1_582)">
<g clip-path="url(#clip1_1_582)">
<path d="M12.0019 3C14.6578 3.00024 16.8183 5.16037 16.8183 7.81543C16.8182 9.33942 16.1064 10.7002 14.998 11.583C15.3116 11.692 15.6204 11.8188 15.9237 11.9629C16.3088 12.1458 16.473 12.6064 16.29 12.9912C16.107 13.376 15.6466 13.5392 15.2616 13.3564C14.2956 12.8974 13.2624 12.6525 12.1884 12.627C12.1265 12.6293 12.0643 12.6309 12.0019 12.6309C11.9399 12.6309 11.8778 12.6293 11.8163 12.627C8.3105 12.7128 5.27406 15.2274 4.55754 18.668C4.51707 18.8631 4.56576 19.0625 4.69035 19.2158C4.76317 19.3053 4.92377 19.4539 5.19035 19.4541H13.7802C14.2063 19.4543 14.5517 19.7996 14.5517 20.2256C14.5516 20.6515 14.2063 20.9969 13.7802 20.9971H5.19035C4.52899 20.9969 3.91028 20.7023 3.49308 20.1895C3.07384 19.6741 2.91106 19.0041 3.04679 18.3525C3.46891 16.3261 4.58661 14.4821 6.19425 13.1602C7.03487 12.469 7.99061 11.9382 9.00871 11.5859C7.89819 10.7032 7.18453 9.34109 7.18449 7.81543C7.18449 5.16022 9.34573 3 12.0019 3ZM12.0019 4.54297C10.197 4.54297 8.72843 6.0112 8.72843 7.81543C8.7285 9.5634 10.1067 10.9955 11.8339 11.083C11.8897 11.082 11.946 11.082 12.0019 11.082C12.058 11.082 12.114 11.082 12.1698 11.083C13.8964 10.9949 15.2743 9.56295 15.2743 7.81543C15.2743 6.01134 13.8065 4.54321 12.0019 4.54297Z" fill="black"/>
<path d="M17.6209 14.2248C18.0472 14.2248 18.3933 14.5702 18.3934 14.9963V16.8391H20.2371C20.6631 16.8392 21.0084 17.1847 21.0086 17.6105C21.0086 18.0365 20.6632 18.3818 20.2371 18.382H18.3934V20.2258C18.3931 20.6517 18.047 20.9973 17.6209 20.9973C17.195 20.997 16.8497 20.6515 16.8494 20.2258V18.382H15.0057C14.5796 18.3818 14.2342 18.0366 14.2342 17.6105C14.2344 17.1847 14.5797 16.8392 15.0057 16.8391H16.8494V14.9963C16.8495 14.5703 17.1949 14.2251 17.6209 14.2248Z" fill="black"/>
</g>
</g>
<defs>
<clipPath id="clip0_1_582">
<rect width="24" height="24" fill="white"/>
</clipPath>
<clipPath id="clip1_1_582">
<rect width="18" height="18" fill="white" transform="translate(3 3)"/>
</clipPath>
</defs>
</svg>
