<svg width="24" height="24" viewBox="0 0 24 24" fill="none" xmlns="http://www.w3.org/2000/svg">
<g clip-path="url(#clip0_1_499)">
<path fill-rule="evenodd" clip-rule="evenodd" d="M20.6969 4.90202C20.6969 4.01909 19.9785 3.30078 19.0951 3.30078C18.2548 3.30078 17.4646 3.62801 16.8706 4.2222L14.0214 7.07143L6.93174 5.40328C5.57941 5.08508 4.15312 5.64781 3.3825 6.80367C3.32675 6.88743 3.29688 6.9858 3.29688 7.08642C3.29688 7.274 3.39989 7.44658 3.56503 7.53539L10.0599 11.0327L6.87161 14.2209H4.89812C4.0152 14.2209 3.29688 14.9393 3.29688 15.8229C3.29688 16.0018 3.39086 16.1678 3.54446 16.2599L6.16524 17.8325L7.73767 20.4532C7.82981 20.6066 7.99575 20.7007 8.17483 20.7007C8.60295 20.7007 9.00519 20.5339 9.30733 20.2315C9.61 19.929 9.77661 19.5268 9.77661 19.0989V17.126L12.9649 13.9377L16.4622 20.4326C16.5511 20.5977 16.7238 20.7008 16.9112 20.7008C17.0118 20.7008 17.1102 20.6709 17.194 20.615C18.3498 19.8445 18.9126 18.4183 18.5945 17.0659L16.9263 9.97641L19.7754 7.12718C20.3697 6.53286 20.6969 5.74286 20.6969 4.90202ZM4.60421 6.93708C5.1623 6.43343 5.94673 6.21891 6.69824 6.39559L13.1734 7.91917L14.4004 8.13411L17.5915 4.94304C17.993 4.54147 18.5269 4.32031 19.0949 4.32031C19.4157 4.32031 19.6773 4.5813 19.6773 4.90255C19.6773 5.47059 19.4562 6.00451 19.0546 6.40622L15.8635 9.59725L16.0784 10.8241L17.602 17.2995C17.7789 18.051 17.5642 18.8354 17.0607 19.3935L13.7176 13.1849L12.9635 12.4841L8.90642 16.5544C8.8107 16.6501 8.75707 16.7796 8.75707 16.9148V19.0989C8.75707 19.2544 8.69654 19.4005 8.58636 19.5107C8.53963 19.5574 8.4864 19.5952 8.42865 19.6232L6.97382 17.1985C6.93082 17.1269 6.87081 17.0667 6.79899 17.0237L4.37455 15.569C4.4688 15.3748 4.66806 15.2407 4.89812 15.2407H7.08282C7.21796 15.2407 7.34765 15.1868 7.44324 15.0913L11.5335 11.0009L10.8126 10.28L4.60421 6.93708Z" fill="black" stroke="black" stroke-width="0.6"/>
</g>
<defs>
<clipPath id="clip0_1_499">
<rect width="18" height="18" fill="white" transform="translate(3 3)"/>
</clipPath>
</defs>
</svg>
