<svg width="14" height="8" viewBox="0 0 14 8" fill="none" xmlns="http://www.w3.org/2000/svg">
<path d="M7.0054 5.58749L12.2969 0.293636C12.3895 0.200576 12.4995 0.126727 12.6207 0.0763345C12.7419 0.0259422 12.8719 1.47937e-07 13.0031 1.30725e-07C13.1344 1.13513e-07 13.2643 0.0259421 13.3855 0.0763344C13.5067 0.126727 13.6168 0.200576 13.7093 0.293636C13.8956 0.482426 14 0.736963 14 1.00217C14 1.26737 13.8956 1.52191 13.7093 1.7107L7.71335 7.71133C7.53136 7.8929 7.28634 7.99726 7.02933 8.00269C6.77231 8.00812 6.52311 7.9142 6.33361 7.74049L0.29565 1.71536C0.107118 1.52791 0.000770736 1.27325 4.90047e-06 1.00739C-0.000759981 0.741527 0.104118 0.486252 0.291568 0.29772C0.479018 0.109187 0.733685 0.00284056 0.999544 0.00207498C1.2654 0.00130941 1.52068 0.106188 1.70921 0.293638L7.0054 5.58749Z" fill="black"/>
</svg>
