<svg width="24" height="24" viewBox="0 0 24 24" fill="none" xmlns="http://www.w3.org/2000/svg">
<path d="M13.3906 4C13.8324 4 14.1855 4.36929 14.1855 4.81738C14.1854 5.26533 13.8323 5.63379 13.3906 5.63379H12.7939V6.91504C16.6829 7.32601 19.6093 10.7257 19.6094 14.873C19.6094 15.2176 19.8797 15.4929 20.2051 15.4932C20.6468 15.4932 20.9999 15.8616 21 16.3096C21 16.7575 20.6477 17.1268 20.2061 17.127H14.8809V18.3662H20.2061C20.6476 18.3664 20.9998 18.7348 21 19.1826C21 19.6306 20.6477 19.9998 20.2061 20H3.79395C3.3523 19.9998 3 19.6306 3 19.1826C3.00017 18.7348 3.35241 18.3664 3.79395 18.3662H9.11914V17.127H3.79395C3.3523 17.1268 3 16.7575 3 16.3096C3.0001 15.8617 3.35236 15.4934 3.79395 15.4932C4.11974 15.4932 4.39062 15.2177 4.39062 14.873C4.39069 10.7222 7.32069 7.32565 11.2061 6.91504V5.63379H10.6094C10.1677 5.63379 9.81462 5.26533 9.81445 4.81738C9.81445 4.36929 10.1676 4 10.6094 4H13.3906ZM10.708 18.3662H13.292V17.127H10.708V18.3662ZM12 8.50684C8.62835 8.50684 5.97956 11.2973 5.97949 14.873C5.97949 15.0878 5.95029 15.2962 5.89551 15.4932H18.1045C18.0497 15.2962 18.0205 15.0878 18.0205 14.873C18.0204 11.2973 15.3716 8.50684 12 8.50684Z" fill="black"/>
</svg>
