<svg width="32" height="32" viewBox="0 0 32 32" fill="none" xmlns="http://www.w3.org/2000/svg">
<g clip-path="url(#clip0_1_4973)">
<path d="M17.896 16L23.6103 10.2857C23.8517 10.0326 23.9846 9.69514 23.9805 9.34538C23.9764 8.99562 23.8356 8.66134 23.5883 8.41401C23.3409 8.16668 23.0067 8.02591 22.6569 8.02179C22.3071 8.01768 21.9697 8.15055 21.7166 8.392L16.0023 14.1063L10.288 8.392C10.1648 8.26281 10.0169 8.15957 9.8532 8.08835C9.68947 8.01712 9.51316 7.97935 9.33462 7.97725C9.15609 7.97515 8.97894 8.00877 8.81358 8.07612C8.64823 8.14348 8.49801 8.24322 8.37176 8.36947C8.2455 8.49572 8.14577 8.64594 8.07841 8.81129C8.01106 8.97665 7.97744 9.1538 7.97954 9.33234C7.98164 9.51087 8.01941 9.68718 8.09064 9.85091C8.16186 10.0146 8.2651 10.1625 8.39429 10.2857L14.1086 16L8.39429 21.7143C8.2651 21.8375 8.16186 21.9854 8.09064 22.1491C8.01941 22.3128 7.98164 22.4891 7.97954 22.6677C7.97744 22.8462 8.01106 23.0234 8.07841 23.1887C8.14577 23.3541 8.2455 23.5043 8.37176 23.6305C8.49801 23.7568 8.64823 23.8565 8.81358 23.9239C8.97894 23.9912 9.15609 24.0249 9.33462 24.0228C9.51316 24.0207 9.68947 23.9829 9.8532 23.9117C10.0169 23.8404 10.1648 23.7372 10.288 23.608L16.0023 17.8937L21.7166 23.608C21.8398 23.7372 21.9877 23.8404 22.1514 23.9117C22.3151 23.9829 22.4914 24.0207 22.67 24.0228C22.8485 24.0249 23.0256 23.9912 23.191 23.9239C23.3564 23.8565 23.5066 23.7568 23.6328 23.6305C23.7591 23.5043 23.8588 23.3541 23.9262 23.1887C23.9935 23.0234 24.0271 22.8462 24.025 22.6677C24.0229 22.4891 23.9852 22.3128 23.9139 22.1491C23.8427 21.9854 23.7395 21.8375 23.6103 21.7143L17.896 16Z" fill="black"/>
</g>
<defs>
<clipPath id="clip0_1_4973">
<rect width="16" height="16" fill="white" transform="translate(8 8)"/>
</clipPath>
</defs>
</svg>
