<svg width="24" height="24" viewBox="0 0 24 24" fill="none" xmlns="http://www.w3.org/2000/svg">
<path d="M23.0625 7.14446H21.9653C21.9622 7.14352 21.9592 7.14217 21.9559 7.14127L4.32797 2.11037C3.83039 1.96834 3.31125 2.25676 3.16917 2.75457L1.91634 7.14446H0.9375C0.419719 7.14446 0 7.56418 0 8.08196V20.9882C0 21.506 0.419719 21.9257 0.9375 21.9257H23.0625C23.5803 21.9257 24 21.506 24 20.9882V8.08196C24 7.56423 23.5803 7.14446 23.0625 7.14446ZM17.5794 20.0507H6.42056C6.02555 17.7333 4.19241 15.9001 1.875 15.5051V13.5651C4.19241 13.1701 6.02555 11.3369 6.42056 9.01951H17.5794C17.9744 11.3369 19.8075 13.1701 22.125 13.5651V15.5051C19.8076 15.9001 17.9744 17.7333 17.5794 20.0507ZM4.50384 9.01946C4.16677 10.3006 3.15619 11.3113 1.875 11.6483V9.01946H4.50384ZM22.125 11.6484C20.8438 11.3113 19.8332 10.3006 19.4961 9.01951H22.125V11.6484ZM4.71492 4.17066L15.135 7.14446H3.8662L4.71492 4.17066ZM1.875 17.4219C3.15619 17.7589 4.16681 18.7696 4.50384 20.0507H1.875V17.4219ZM19.4961 20.0507C19.8332 18.7696 20.8438 17.7589 22.125 17.4219V20.0507H19.4961ZM12 10.8398C9.96239 10.8398 8.3047 12.4975 8.3047 14.5351C8.3047 16.5727 9.96244 18.2304 12 18.2304C14.0376 18.2304 15.6953 16.5727 15.6953 14.5351C15.6953 12.4975 14.0376 10.8398 12 10.8398ZM12 16.3554C10.9963 16.3554 10.1797 15.5388 10.1797 14.5351C10.1797 13.5314 10.9963 12.7148 12 12.7148C13.0037 12.7148 13.8203 13.5314 13.8203 14.5351C13.8203 15.5388 13.0037 16.3554 12 16.3554Z" fill="black"/>
</svg>
