<svg width="24" height="24" viewBox="0 0 24 24" fill="none" xmlns="http://www.w3.org/2000/svg">
<g clip-path="url(#clip0_1_514)">
<path d="M3.26173 11.9673L5.1853 13.5636C5.89043 14.1488 6.74554 14.5012 7.6582 14.5828C7.79351 14.5949 7.92861 14.6009 8.06322 14.6009C8.83659 14.6009 9.59319 14.4024 10.2727 14.0184L19.9198 8.56698C20.4149 8.28602 20.7709 7.82911 20.9223 7.28038C21.0737 6.73172 21.0023 6.15687 20.7214 5.66182C20.1479 4.65118 18.8539 4.28635 17.8396 4.84721L14.6692 6.58192L10.5647 5.69567C8.95495 5.34124 7.26323 5.57048 5.801 6.34101C5.56715 6.46423 5.42217 6.70824 5.42576 6.97257C5.42934 7.23693 5.5809 7.4769 5.81801 7.59372L9.58335 9.44898L7.55867 10.5492L7.14926 10.4087C5.87757 9.9724 4.4905 10.1246 3.34371 10.8265C3.15018 10.9449 3.0257 11.1495 3.00942 11.3758C2.99318 11.6021 3.08711 11.8224 3.26173 11.9673ZM6.69298 11.7388L7.39471 11.9796C7.581 12.0434 7.78553 12.0264 7.95856 11.9323L11.4479 10.0362C11.6787 9.91081 11.8204 9.66712 11.8151 9.4044C11.8099 9.14173 11.6586 8.9039 11.4229 8.78775L7.91486 7.05922C8.68511 6.89733 9.48674 6.89818 10.2651 7.06956L14.6285 8.01167C14.7937 8.04732 14.9662 8.02236 15.1144 7.94122L18.5173 6.07925C18.8633 5.88804 19.3033 6.0121 19.4984 6.35581C19.594 6.52413 19.6182 6.7197 19.5667 6.9063C19.5152 7.0929 19.3942 7.24832 19.2269 7.34327L9.58085 12.7941C8.47041 13.4217 7.06489 13.296 6.08329 12.4814L5.06331 11.635C5.59911 11.5236 6.16074 11.5562 6.69298 11.7388ZM20.9993 18.7146C20.9993 19.1029 20.6845 19.4177 20.2962 19.4177H3.7031C3.31478 19.4177 3 19.1029 3 18.7146C3 18.3263 3.31478 18.0115 3.7031 18.0115H20.2962C20.6845 18.0115 20.9993 18.3263 20.9993 18.7146Z" fill="black"/>
</g>
<defs>
<clipPath id="clip0_1_514">
<rect width="24" height="24" fill="white"/>
</clipPath>
</defs>
</svg>
