<svg width="24" height="24" viewBox="0 0 24 24" fill="none" xmlns="http://www.w3.org/2000/svg">
<g clip-path="url(#clip0_1_2637)">
<path d="M21.1875 5.62494H18.058C18.3781 5.07289 18.5625 4.43272 18.5625 3.74994C18.5625 1.68219 16.8802 -6.10352e-05 14.8125 -6.10352e-05C13.6933 -6.10352e-05 12.6877 0.493392 12 1.27349C11.3123 0.493392 10.3067 -6.10352e-05 9.1875 -6.10352e-05C7.11975 -6.10352e-05 5.4375 1.68219 5.4375 3.74994C5.4375 4.43272 5.62181 5.07289 5.94202 5.62494H2.8125C1.26169 5.62494 0 6.88663 0 8.43744V12.9374H1.875V21.1874C1.875 22.7383 3.13669 23.9999 4.6875 23.9999H19.3125C20.8633 23.9999 22.125 22.7383 22.125 21.1874V12.9374H24V8.43744C24 6.88663 22.7383 5.62494 21.1875 5.62494ZM11.0625 22.1249H4.6875C4.17056 22.1249 3.75 21.7044 3.75 21.1874V12.9374H11.0625V22.1249ZM11.0625 11.0624H1.875V8.43744C1.875 7.9205 2.29556 7.49994 2.8125 7.49994H11.0625V11.0624ZM11.0625 5.62494H9.1875C8.15363 5.62494 7.3125 4.78381 7.3125 3.74994C7.3125 2.71606 8.15363 1.87494 9.1875 1.87494C10.2214 1.87494 11.0625 2.71606 11.0625 3.74994V5.62494ZM12.9375 3.74994C12.9375 2.71606 13.7786 1.87494 14.8125 1.87494C15.8464 1.87494 16.6875 2.71606 16.6875 3.74994C16.6875 4.78381 15.8464 5.62494 14.8125 5.62494H12.9375V3.74994ZM20.25 21.1874C20.25 21.7044 19.8294 22.1249 19.3125 22.1249H12.9375V12.9374H20.25V21.1874ZM22.125 11.0624H12.9375V7.49994H21.1875C21.7044 7.49994 22.125 7.9205 22.125 8.43744V11.0624Z" fill="black"/>
</g>
<defs>
<clipPath id="clip0_1_2637">
<rect width="24" height="24" fill="white"/>
</clipPath>
</defs>
</svg>
