<svg width="24" height="24" viewBox="0 0 24 24" fill="none" xmlns="http://www.w3.org/2000/svg">
<g clip-path="url(#clip0_1_565)">
<g clip-path="url(#clip1_1_565)">
<path d="M19.4668 15.8089C18.6405 15.1352 17.7221 14.5831 16.7395 14.1693C16.0108 13.8368 15.3102 13.4457 14.6446 13C15.7281 11.7701 16.3699 10.2136 16.4681 8.57746C16.544 7.48646 16.3614 6.39295 15.9352 5.3858C15.455 4.43427 14.3811 3.30078 11.9969 3.30078C9.61262 3.30078 8.53881 4.43427 8.05957 5.38878C7.63308 6.39586 7.45048 7.48943 7.52665 8.58044C7.62503 10.2157 8.26682 11.7712 9.35013 13C8.68439 13.4461 7.98343 13.8371 7.25422 14.1693C6.27167 14.5832 5.35329 15.1353 4.52695 15.8089C3.73026 16.7705 3.29515 17.9805 3.29704 19.2293C3.29414 19.4215 3.32949 19.6123 3.40105 19.7907C3.4726 19.9692 3.57892 20.1316 3.71382 20.2685C3.84872 20.4054 4.00951 20.5142 4.18683 20.5884C4.36415 20.6626 4.55446 20.7008 4.74668 20.7008H19.2461C19.4385 20.701 19.629 20.6628 19.8065 20.5886C19.984 20.5144 20.1449 20.4056 20.28 20.2685C20.415 20.1314 20.5214 19.9689 20.5929 19.7903C20.6645 19.6117 20.6998 19.4206 20.6967 19.2283C20.6982 17.9799 20.2631 16.7703 19.4668 15.8089ZM19.5036 19.5077C19.4699 19.542 19.4296 19.5692 19.3852 19.5878C19.3409 19.6064 19.2932 19.616 19.2451 19.616H4.74668C4.69888 19.6158 4.65161 19.6061 4.60758 19.5875C4.56355 19.5689 4.52364 19.5418 4.49016 19.5077C4.42246 19.4383 4.38493 19.345 4.38576 19.2482C4.38451 18.2823 4.70534 17.3435 5.2975 16.5805C6.0467 15.9983 6.86776 15.5151 7.74041 15.1427C8.57481 14.7832 9.3654 14.3295 10.0968 13.7905L10.8306 13.0945L10.1933 12.312C9.26907 11.2755 8.7136 9.96251 8.61338 8.57746C8.54296 7.65692 8.68551 6.73254 9.02998 5.87598C9.32388 5.36394 9.76181 4.94958 10.2893 4.68441C10.8168 4.41924 11.4106 4.31497 11.9969 4.38456C12.5826 4.3145 13.1761 4.41803 13.7035 4.68228C14.231 4.94654 14.6692 5.35989 14.9638 5.87101C15.3083 6.72791 15.4508 7.65262 15.3804 8.57348C15.2807 9.95944 14.7248 11.2734 13.7995 12.31L13.1622 13.0935L13.8959 13.7895C14.6272 14.3283 15.4174 14.782 16.2514 15.1418C17.1249 15.5129 17.9466 15.9954 18.6963 16.5775C19.2957 17.3366 19.6174 18.2779 19.608 19.2452C19.609 19.2937 19.6003 19.3419 19.5824 19.387C19.5645 19.4321 19.5377 19.4731 19.5036 19.5077Z" fill="black" stroke="black" stroke-width="0.6" stroke-linejoin="round"/>
</g>
</g>
<defs>
<clipPath id="clip0_1_565">
<rect width="24" height="24" fill="white"/>
</clipPath>
<clipPath id="clip1_1_565">
<rect width="18" height="18" fill="white" transform="translate(3 3)"/>
</clipPath>
</defs>
</svg>
