<svg width="18" height="18" viewBox="0 0 18 18" fill="none" xmlns="http://www.w3.org/2000/svg">
<path d="M9.92543 0C10.9379 0.00269994 11.4518 0.00809981 11.8955 0.0206995L12.0701 0.0269993C12.2717 0.0341992 12.4706 0.0431989 12.7109 0.0539987C13.6684 0.0989976 14.3218 0.250194 14.8951 0.472489C15.4891 0.701084 15.9895 1.01068 16.4899 1.51016C16.9475 1.96006 17.3016 2.50427 17.5275 3.10493C17.7498 3.67821 17.901 4.3316 17.946 5.29008C17.9568 5.52947 17.9658 5.72837 17.973 5.93086L17.9784 6.10546C17.9919 6.54825 17.9973 7.06214 17.9991 8.07461L18 8.746V9.92497C18.0022 10.5814 17.9953 11.2379 17.9793 11.8941L17.9739 12.0687C17.9667 12.2712 17.9577 12.4701 17.9469 12.7095C17.9019 13.668 17.7489 14.3205 17.5275 14.8947C17.3023 15.4956 16.9481 16.04 16.4899 16.4894C16.0399 16.9469 15.4957 17.301 14.8951 17.5271C14.3218 17.7494 13.6684 17.9006 12.7109 17.9456C12.4973 17.9556 12.2837 17.9646 12.0701 17.9726L11.8955 17.978C11.4518 17.9906 10.9379 17.9969 9.92543 17.9987L9.25404 17.9996H8.07597C7.41922 18.0018 6.76247 17.9949 6.10592 17.9789L5.93132 17.9735C5.71767 17.9654 5.50408 17.9561 5.29053 17.9456C4.33296 17.9006 3.67957 17.7494 3.10539 17.5271C2.5048 17.3015 1.96081 16.9474 1.51152 16.4894C1.05347 16.0397 0.699044 15.4954 0.472947 14.8947C0.250652 14.3214 0.0994559 13.668 0.0544569 12.7095C0.0444301 12.496 0.0354302 12.2824 0.0274576 12.0687L0.0229578 11.8941C0.00637304 11.2379 -0.00112759 10.5814 0.000458253 9.92497V8.07461C-0.00205356 7.41817 0.00454699 6.76172 0.0202579 6.10546L0.0265577 5.93086C0.0337575 5.72837 0.0427573 5.52947 0.053557 5.29008C0.098556 4.3316 0.249752 3.67911 0.472047 3.10493C0.698044 2.50366 1.05318 1.95928 1.51242 1.51016C1.9616 1.0525 2.50523 0.698372 3.10539 0.472489C3.67957 0.250194 4.33206 0.0989976 5.29053 0.0539987C5.52993 0.0431989 5.72972 0.0341992 5.93132 0.0269993L6.10592 0.0215994C6.76217 0.00560931 7.41862 -0.0012912 8.07507 0.000899914L9.92543 0ZM9.00025 4.4999C7.8068 4.4999 6.66224 4.97399 5.81834 5.81788C4.97445 6.66178 4.50035 7.80634 4.50035 8.99979C4.50035 10.1932 4.97445 11.3378 5.81834 12.1817C6.66224 13.0256 7.8068 13.4997 9.00025 13.4997C10.1937 13.4997 11.3383 13.0256 12.1822 12.1817C13.026 11.3378 13.5001 10.1932 13.5001 8.99979C13.5001 7.80634 13.026 6.66178 12.1822 5.81788C11.3383 4.97399 10.1937 4.4999 9.00025 4.4999ZM9.00025 6.29985C9.35481 6.29979 9.70591 6.36957 10.0335 6.5052C10.3611 6.64083 10.6588 6.83966 10.9095 7.09033C11.1603 7.341 11.3592 7.6386 11.4949 7.96615C11.6307 8.2937 11.7006 8.64478 11.7006 8.99934C11.7007 9.3539 11.6309 9.705 11.4953 10.0326C11.3597 10.3602 11.1608 10.6579 10.9102 10.9086C10.6595 11.1594 10.3619 11.3583 10.0343 11.494C9.70679 11.6298 9.35571 11.6997 9.00115 11.6997C8.28508 11.6997 7.59834 11.4153 7.092 10.9089C6.58567 10.4026 6.30121 9.71586 6.30121 8.99979C6.30121 8.28372 6.58567 7.59698 7.092 7.09065C7.59834 6.58431 8.28508 6.29985 9.00115 6.29985M13.726 3.14993C13.4277 3.14993 13.1415 3.26845 12.9306 3.47942C12.7196 3.6904 12.6011 3.97654 12.6011 4.2749C12.6011 4.57326 12.7196 4.8594 12.9306 5.07038C13.1415 5.28135 13.4277 5.39987 13.726 5.39987C14.0244 5.39987 14.3105 5.28135 14.5215 5.07038C14.7325 4.8594 14.851 4.57326 14.851 4.2749C14.851 3.97654 14.7325 3.6904 14.5215 3.47942C14.3105 3.26845 14.0244 3.14993 13.726 3.14993Z" fill="#666666"/>
</svg>
