<svg width="24" height="24" viewBox="0 0 24 24" fill="none" xmlns="http://www.w3.org/2000/svg">
<g clip-path="url(#clip0_1_2626)">
<path d="M12.918 16.5901L9.24585 20.2623C9.24585 20.2623 9.24585 20.2624 9.24576 20.2624C9.24576 20.2624 9.24576 20.2625 9.24568 20.2625C7.72715 21.7811 5.25616 21.7812 3.73746 20.2625C3.00174 19.5268 2.59666 18.5486 2.59666 17.5083C2.59666 16.4681 3.00174 15.4901 3.7372 14.7544C3.73729 14.7543 3.73738 14.7542 3.73746 14.7541L7.40958 11.0819C7.91653 10.5749 7.91653 9.75277 7.40949 9.24582C6.90253 8.73886 6.08043 8.73886 5.57339 9.24582L1.90128 12.918C1.90102 12.9183 1.90076 12.9186 1.9005 12.9189C0.674959 14.1449 0 15.7748 0 17.5083C0 19.2423 0.675219 20.8725 1.90136 22.0986C3.16698 23.3641 4.82927 23.9969 6.49166 23.9969C8.15404 23.9969 9.81642 23.3641 11.0819 22.0986C11.082 22.0986 11.082 22.0984 11.082 22.0984L14.7541 18.4262C15.261 17.9193 15.261 17.0972 14.754 16.5901C14.2471 16.0832 13.4251 16.0832 12.918 16.5901Z" fill="black"/>
<path d="M24.0018 6.4916C24.0018 4.75764 23.3265 3.12745 22.1003 1.90131C19.5692 -0.629744 15.4508 -0.629657 12.9198 1.90131C12.9198 1.90148 12.9196 1.90157 12.9195 1.90174L9.24747 5.57368C8.74043 6.08064 8.74043 6.90283 9.24747 7.40978C9.50108 7.66339 9.83328 7.79011 10.1656 7.79011C10.4978 7.79011 10.8301 7.6633 11.0836 7.40978L14.7556 3.73784C14.7557 3.73767 14.7559 3.73758 14.756 3.73741C16.2746 2.21888 18.7455 2.2188 20.2642 3.73741C20.9999 4.47313 21.4051 5.45129 21.4051 6.4916C21.4051 7.53183 21.0001 8.50982 20.2645 9.24554L20.2642 9.2458L16.5921 12.918C16.0852 13.425 16.0852 14.2471 16.5922 14.7541C16.8457 15.0076 17.178 15.1344 17.5102 15.1344C17.8425 15.1344 18.1748 15.0076 18.4283 14.7541L22.1004 11.0819C22.1007 11.0816 22.1009 11.0813 22.1012 11.081C23.3267 9.85506 24.0018 8.22513 24.0018 6.4916Z" fill="black"/>
<path d="M7.41153 16.5901C7.66505 16.8437 7.99734 16.9705 8.32954 16.9705C8.66182 16.9705 8.99411 16.8437 9.24763 16.5901L16.592 9.24574C17.0991 8.73878 17.0991 7.91668 16.592 7.40964C16.0851 6.90268 15.263 6.90268 14.7559 7.40964L7.41153 14.7539C6.90449 15.2611 6.90449 16.0832 7.41153 16.5901Z" fill="black"/>
</g>
<defs>
<clipPath id="clip0_1_2626">
<rect width="24" height="24" fill="white"/>
</clipPath>
</defs>
</svg>
