<svg width="24" height="24" viewBox="0 0 24 24" fill="none" xmlns="http://www.w3.org/2000/svg">
<g clip-path="url(#clip0_1_600)">
<path d="M19.277 20.5426H4.72302C4.49641 20.5435 4.27186 20.4995 4.06233 20.4132C3.8528 20.3269 3.66245 20.1999 3.50225 20.0396C3.34206 19.8793 3.2152 19.6889 3.129 19.4793C3.0428 19.2698 2.99896 19.0452 3.00002 18.8186V8.32458C2.99909 8.09805 3.04303 7.87358 3.12929 7.66412C3.21555 7.45466 3.34243 7.26435 3.50261 7.10417C3.66279 6.94399 3.8531 6.81711 4.06256 6.73085C4.27202 6.64459 4.49649 6.60065 4.72302 6.60158H19.277C19.5035 6.60065 19.728 6.64459 19.9375 6.73085C20.1469 6.81711 20.3372 6.94399 20.4974 7.10417C20.6576 7.26435 20.7845 7.45466 20.8708 7.66412C20.957 7.87358 21.0009 8.09805 21 8.32458V18.8186C20.9956 19.2743 20.8127 19.7101 20.4905 20.0324C20.1684 20.3547 19.7327 20.5379 19.277 20.5426ZM4.72302 8.09558C4.66333 8.09956 4.60712 8.12507 4.56481 8.16737C4.52251 8.20967 4.497 8.26589 4.49302 8.32558V18.8186C4.497 18.8783 4.52251 18.9345 4.56481 18.9768C4.60712 19.0191 4.66333 19.0446 4.72302 19.0486H19.277C19.3367 19.0446 19.3929 19.0191 19.4352 18.9768C19.4775 18.9345 19.503 18.8783 19.507 18.8186V8.32458C19.503 8.26489 19.4775 8.20867 19.4352 8.16637C19.3929 8.12407 19.3367 8.09856 19.277 8.09458L4.72302 8.09558Z" fill="black"/>
<path d="M15.2526 8.09494H8.74256C8.53957 8.09441 8.34504 8.01354 8.2015 7.87C8.05796 7.72646 7.97709 7.53193 7.97656 7.32894V5.68194C7.97709 5.09305 8.21126 4.52844 8.62766 4.11204C9.04407 3.69563 9.60868 3.46147 10.1976 3.46094H13.7206C14.3094 3.46147 14.8741 3.69563 15.2905 4.11204C15.7069 4.52844 15.941 5.09305 15.9416 5.68194V7.32894C15.9598 7.42687 15.9553 7.52769 15.9283 7.62359C15.9014 7.71949 15.8527 7.8079 15.7861 7.88196C15.7195 7.95603 15.6367 8.01376 15.5442 8.0507C15.4517 8.08763 15.3519 8.10277 15.2526 8.09494ZM9.50856 6.60094H14.5256V5.68194C14.5257 5.5863 14.507 5.49157 14.4704 5.40319C14.4339 5.3148 14.3803 5.2345 14.3126 5.16687C14.245 5.09924 14.1647 5.04562 14.0763 5.00909C13.9879 4.97255 13.8932 4.95381 13.7976 4.95394H10.2766C10.1809 4.95381 10.0862 4.97255 9.99781 5.00909C9.90943 5.04562 9.82912 5.09924 9.7615 5.16687C9.69387 5.2345 9.64025 5.3148 9.60371 5.40319C9.56717 5.49157 9.54843 5.5863 9.54856 5.68194V6.60094H9.50856Z" fill="black"/>
<path d="M7.3285 20.5406C7.12551 20.54 6.93098 20.4592 6.78744 20.3156C6.6439 20.1721 6.56303 19.9776 6.5625 19.7746V7.36756C6.5625 7.16441 6.6432 6.96957 6.78686 6.82592C6.93051 6.68227 7.12534 6.60156 7.3285 6.60156C7.53166 6.60156 7.72649 6.68227 7.87014 6.82592C8.0138 6.96957 8.0945 7.16441 8.0945 7.36756V19.7746C8.08753 19.9755 8.00459 20.1663 7.86242 20.3085C7.72025 20.4507 7.52944 20.5336 7.3285 20.5406Z" fill="black"/>
<path d="M16.6722 20.5406C16.4693 20.54 16.2747 20.4592 16.1312 20.3156C15.9876 20.1721 15.9068 19.9776 15.9062 19.7746V7.36756C15.9062 7.26697 15.9261 7.16736 15.9646 7.07443C16.0031 6.98149 16.0595 6.89705 16.1306 6.82592C16.2017 6.75479 16.2862 6.69837 16.3791 6.65987C16.472 6.62138 16.5717 6.60156 16.6722 6.60156C16.7728 6.60156 16.8725 6.62138 16.9654 6.65987C17.0583 6.69837 17.1428 6.75479 17.2139 6.82592C17.285 6.89705 17.3414 6.98149 17.3799 7.07443C17.4184 7.16736 17.4382 7.26697 17.4382 7.36756V19.7746C17.4377 19.9776 17.3568 20.1721 17.2133 20.3156C17.0698 20.4592 16.8752 20.54 16.6722 20.5406Z" fill="black"/>
</g>
<defs>
<clipPath id="clip0_1_600">
<rect width="24" height="24" fill="white"/>
</clipPath>
</defs>
</svg>
