<svg width="24" height="24" viewBox="0 0 24 24" fill="none" xmlns="http://www.w3.org/2000/svg">
<path d="M13.6396 3C14.9856 3 16.08 4.09449 16.0801 5.44043V6.2793H20.1992C20.6413 6.2793 20.9998 6.63804 21 7.08008V12C21 12.4422 20.6414 12.8008 20.1992 12.8008H18.5596C18.0971 12.8008 17.7208 13.1773 17.7207 13.6396C17.7207 14.1021 18.097 14.4795 18.5596 14.4795H20.1992C20.6413 14.4795 20.9998 14.8373 21 15.2793V20.1992C21 20.6414 20.6414 21 20.1992 21H15.2793C14.8373 20.9998 14.4795 20.6413 14.4795 20.1992V18.5596C14.4795 18.0971 14.1021 17.7207 13.6396 17.7207C13.1773 17.7208 12.8008 18.0971 12.8008 18.5596V20.1992C12.8008 20.6414 12.4422 21 12 21H7.08008C6.63804 20.9998 6.2793 20.6413 6.2793 20.1992V16.0801H5.44043C4.09453 16.08 3 14.9856 3 13.6396C3.00012 12.2938 4.0946 11.1993 5.44043 11.1992H6.2793V7.08008C6.27947 6.63815 6.63815 6.27947 7.08008 6.2793H11.1992V5.44043C11.1993 4.0946 12.2938 3.00012 13.6396 3ZM13.6396 4.60156C13.1773 4.60168 12.8008 4.97805 12.8008 5.44043V7.08008C12.8008 7.52226 12.4422 7.88086 12 7.88086H7.88086V12C7.88086 12.4422 7.52226 12.8008 7.08008 12.8008H5.44043C4.97808 12.8008 4.60168 13.1773 4.60156 13.6396C4.60156 14.1021 4.97798 14.4794 5.44043 14.4795H7.08008C7.52211 14.4795 7.88062 14.8373 7.88086 15.2793V19.3984H11.1992V18.5596C11.1992 17.2137 12.2938 16.1193 13.6396 16.1191C14.9856 16.1191 16.0801 17.2136 16.0801 18.5596V19.3984H19.3984V16.0801H18.5596C17.2136 16.0801 16.1191 14.9856 16.1191 13.6396C16.1193 12.2938 17.2136 11.1992 18.5596 11.1992H19.3984V7.88086H15.2793C14.8373 7.88062 14.4795 7.52211 14.4795 7.08008V5.44043C14.4794 4.978 14.1021 4.60156 13.6396 4.60156Z" fill="black"/>
</svg>
