<svg width="24" height="24" viewBox="0 0 24 24" fill="none" xmlns="http://www.w3.org/2000/svg">
<g clip-path="url(#clip0_1_534)">
<g clip-path="url(#clip1_1_534)">
<path d="M11.9999 20.7167C10.7952 20.7167 9.66218 20.4882 8.60079 20.0311C7.54004 19.5734 6.61713 18.9522 5.83207 18.1678C5.04701 17.3834 4.4256 16.4615 3.96786 15.402C3.51012 14.3426 3.28125 13.2098 3.28125 12.0039C3.28125 10.7978 3.51012 9.66479 3.96786 8.60469C4.4256 7.54395 5.04668 6.62104 5.8311 5.83598C6.61552 5.05092 7.53778 4.42951 8.59788 3.97177C9.65798 3.51403 10.791 3.28516 11.997 3.28516H12.4812V11.1681C12.6478 11.2714 12.7701 11.3915 12.8483 11.5284C12.9264 11.6652 12.9655 11.8234 12.9655 12.0029C12.9655 12.2611 12.8689 12.4867 12.6759 12.6798C12.4828 12.8728 12.2566 12.9694 11.997 12.9694C11.7375 12.9694 11.5112 12.8728 11.3182 12.6798C11.1251 12.4867 11.0286 12.2618 11.0286 12.0048C11.0286 11.8266 11.0677 11.6675 11.1458 11.5274C11.2239 11.3873 11.3463 11.2678 11.5128 11.1691V8.17374C10.5496 8.28802 9.74385 8.7067 9.09565 9.42979C8.44745 10.1529 8.12335 11.0099 8.12335 12.0009C8.12335 13.0662 8.50265 13.9781 9.26125 14.7367C10.0198 15.4954 10.9318 15.8747 11.997 15.8747C13.0623 15.8747 13.9742 15.4954 14.7328 14.7367C15.4915 13.9781 15.8708 13.0662 15.8708 12.0009C15.8708 11.4199 15.7535 10.8834 15.5192 10.3914C15.2848 9.89947 14.9662 9.46756 14.5634 9.09568L15.2548 8.4052C15.7448 8.85067 16.1312 9.38169 16.414 9.99825C16.6968 10.6148 16.8385 11.2824 16.8391 12.0009C16.8391 13.3458 16.3689 14.4892 15.4282 15.4311C14.4875 16.3731 13.3454 16.8437 12.0019 16.843C10.6584 16.8424 9.51401 16.3718 8.56883 15.4311C7.62623 14.4892 7.15494 13.3458 7.15494 12.0009C7.15494 10.7349 7.57459 9.64575 8.41388 8.7335C9.25318 7.82124 10.2862 7.30797 11.5128 7.19371V4.2652C9.48044 4.38335 7.76181 5.18423 6.35695 6.66785C4.9521 8.15147 4.24967 9.92917 4.24967 12.0009C4.24967 14.1638 5.00019 15.9957 6.50125 17.4967C8.0023 18.9978 9.83423 19.7483 11.997 19.7483C14.1599 19.7483 15.9918 18.9978 17.4928 17.4967C18.9939 15.9957 19.7444 14.1638 19.7444 12.0009C19.7444 10.8873 19.5265 9.84621 19.0907 8.87779C18.6549 7.90936 18.0577 7.07007 17.2991 6.3599L17.9896 5.66941C18.8354 6.46997 19.5007 7.41192 19.9855 8.49526C20.4704 9.5786 20.7128 10.7452 20.7128 11.9951C20.7128 13.2024 20.4843 14.3365 20.0272 15.3972C19.5695 16.4579 18.9483 17.3809 18.1639 18.1659C17.3795 18.9509 16.4576 19.5724 15.3981 20.0301C14.3387 20.4878 13.2059 20.7167 11.9999 20.7167Z" fill="black" stroke="black" stroke-width="0.6"/>
</g>
</g>
<defs>
<clipPath id="clip0_1_534">
<rect width="18" height="18" fill="white" transform="translate(3 3)"/>
</clipPath>
<clipPath id="clip1_1_534">
<rect width="18" height="18" fill="white" transform="translate(3 3)"/>
</clipPath>
</defs>
</svg>
