<svg width="24" height="24" viewBox="0 0 24 24" fill="none" xmlns="http://www.w3.org/2000/svg">
<path d="M6.30467 5.0303C9.83941 2.13368 15.0633 2.33505 18.3633 5.63479C21.8775 9.149 21.8775 14.8481 18.3633 18.3623C14.849 21.8763 9.15082 21.8755 5.6367 18.3614C4.55852 17.2843 3.77113 15.9509 3.34959 14.4864C2.92827 13.0223 2.88619 11.4752 3.22655 9.99026L3.27147 9.80569L4.83494 10.2178C4.42424 11.8703 4.59771 13.6153 5.32713 15.1563C6.07098 16.7277 7.34592 17.9863 8.92674 18.71C10.5075 19.4335 12.2933 19.5762 13.9687 19.1123C15.6442 18.6484 17.1024 17.6074 18.0859 16.1739C19.0693 14.7403 19.5149 13.0055 19.3447 11.2754C19.1745 9.54522 18.3993 7.93028 17.1553 6.71584C15.9111 5.5014 14.2778 4.76518 12.5439 4.63674C10.8103 4.50837 9.08706 4.99608 7.67772 6.0137L7.3828 6.23635L8.2617 7.11526L4.41405 8.00198L5.30174 4.1553L6.23338 5.08791L6.30467 5.0303Z" fill="black"/>
<path d="M12.5283 7.7666C13.1536 7.84432 13.678 8.06093 14.0898 8.42578C14.5425 8.81914 14.8026 9.33486 14.8711 9.95996L14.8955 10.1816H13.3457L13.3203 10.0107C13.2874 9.78965 13.186 9.58678 13.0059 9.40039L13.0029 9.39844C12.8777 9.26426 12.721 9.16024 12.5283 9.08984V11.46C12.9879 11.5787 13.3718 11.7026 13.6768 11.8311C14.0428 11.974 14.3488 12.2051 14.5918 12.5215C14.8573 12.8565 14.9785 13.2971 14.9785 13.8213C14.9785 14.2235 14.8735 14.608 14.667 14.9717L14.666 14.9736C14.4564 15.3343 14.1491 15.6315 13.752 15.8672C13.401 16.0795 12.9913 16.2076 12.5283 16.2568V17.1992H11.4863V16.2529C10.8138 16.169 10.2468 15.9425 9.79688 15.5635L9.79492 15.5615C9.29966 15.1357 9.04385 14.5902 9.03516 13.9385L9.03223 13.7363H10.5703L10.5879 13.916C10.6154 14.1931 10.721 14.4309 10.9053 14.6348C11.0483 14.7863 11.2394 14.8994 11.4863 14.9688V12.5146C11.0183 12.3955 10.6294 12.2727 10.3232 12.1436C9.96577 11.9928 9.66189 11.7577 9.41211 11.4434C9.14621 11.1086 9.02347 10.6716 9.02344 10.1533C9.02344 9.48167 9.2678 8.91653 9.75488 8.47363L9.75684 8.47266C10.2095 8.06842 10.7905 7.83593 11.4863 7.76367V6.79883H12.5283V7.7666ZM12.5283 14.9932C12.8095 14.931 13.0241 14.8121 13.1826 14.6445L13.1846 14.6416C13.3939 14.4274 13.4961 14.1768 13.4961 13.8789C13.4961 13.5517 13.3945 13.328 13.2119 13.1758L13.209 13.1729C13.0455 13.0315 12.8206 12.9066 12.5283 12.8027V14.9932ZM11.4863 9.03516C11.2126 9.08923 10.997 9.19357 10.832 9.3418L10.8301 9.34375C10.6366 9.51166 10.5303 9.75291 10.5303 10.0957C10.5303 10.4254 10.6297 10.6502 10.8057 10.8018C10.9634 10.9375 11.1879 11.0621 11.4863 11.1699V9.03516Z" fill="black"/>
</svg>
