<svg width="24" height="24" viewBox="0 0 24 24" fill="none" xmlns="http://www.w3.org/2000/svg">
<path d="M8.2959 3.41C10.4747 3.41007 12.4111 4.64425 13.207 6.4559C13.9801 6.07359 14.8357 5.87415 15.707 5.87973C18.5624 5.8811 20.9999 8.00129 21 10.7635C21 11.1878 20.6558 11.5321 20.2314 11.5321H17.7617C17.5581 11.5319 17.3627 11.4505 17.2188 11.3065L16.9395 11.0272L16.6592 11.3065C16.5152 11.4505 16.3198 11.532 16.1162 11.5321H14.5C14.5958 11.9536 14.6873 12.3954 14.7646 12.8485C15.1348 15.0167 15.2577 17.6393 14.3691 20.0829C14.2587 20.3864 13.9695 20.5887 13.6465 20.5887H10.3545C10.0978 20.5887 9.85738 20.4604 9.71484 20.2469C9.57233 20.0334 9.54615 19.7623 9.64453 19.5252C10.3148 17.91 10.7886 16.4436 10.4238 14.62C10.3408 14.204 10.6105 13.799 11.0264 13.7157C11.4424 13.6325 11.8474 13.9031 11.9307 14.3192C12.2941 16.1369 11.974 17.6618 11.4785 19.0516H13.0918C13.668 17.1037 13.572 14.9922 13.25 13.1063C13.107 12.2687 12.9244 11.5071 12.7451 10.8348L7.22852 16.3612C7.08425 16.5058 6.88785 16.5869 6.68359 16.5868C6.47942 16.5866 6.28369 16.5049 6.13965 16.3602C4.19077 14.4013 4.40695 11.1811 6.42871 9.15903C6.50259 9.08514 6.57829 9.01326 6.65527 8.94418C6.60623 8.91358 6.55912 8.87926 6.51758 8.83774L6.23828 8.55746L5.95801 8.83774C5.81403 8.98166 5.61861 9.06224 5.41504 9.06235H3.76855C3.34424 9.06235 3 8.71811 3 8.29379C3.00021 5.53078 5.43943 3.41 8.2959 3.41ZM10.3535 9.06235H10.0439C9.16127 9.12134 8.25335 9.50734 7.51562 10.245C6.22154 11.5391 6.00835 13.3629 6.75586 14.6581L11.9238 9.48422C11.473 9.22179 10.9564 9.07959 10.4199 9.05844C10.398 9.06031 10.3759 9.06235 10.3535 9.06235ZM15.6992 7.41586C14.9507 7.41071 14.2177 7.61454 13.582 8.00082C13.5856 8.05806 13.5854 8.11584 13.5869 8.17368C13.6346 8.35517 13.7047 8.59778 13.791 8.8895C13.8842 9.20465 13.9928 9.57841 14.1084 9.99496H15.7979L16.3955 9.39731C16.6955 9.09727 17.1824 9.09727 17.4824 9.39731L18.0801 9.99496H19.3623C18.9775 8.55529 17.536 7.41586 15.7041 7.41586H15.6992ZM8.2959 4.94614C6.4639 4.94614 5.02235 6.08639 4.6377 7.52621H5.09668L5.69434 6.92758C5.99437 6.62754 6.48121 6.62754 6.78125 6.92758L7.37891 7.52621H9.9873C10.6803 7.48307 11.3719 7.58109 12.0166 7.827C11.7641 6.24832 10.2538 4.94621 8.2959 4.94614Z" fill="black"/>
</svg>
