<svg width="24" height="24" viewBox="0 0 24 24" fill="none" xmlns="http://www.w3.org/2000/svg">
<path d="M19.2803 4.81934C20.2344 4.81947 20.9988 5.584 20.999 6.53809V10.0801C20.5263 10.105 20.0776 10.3042 19.7412 10.6406C19.3811 11.0009 19.1788 11.4896 19.1787 11.999C19.1787 12.5084 19.3811 12.9971 19.7412 13.3574C20.0776 13.6938 20.5263 13.8931 20.999 13.918V17.46C20.999 18.4142 20.2345 19.1786 19.2803 19.1787H4.71777C4.26214 19.1786 3.82519 18.9979 3.50293 18.6758C3.18055 18.3534 2.99904 17.9159 2.99902 17.46V13.918C4.01755 13.8659 4.81934 13.0312 4.81934 11.999C4.81929 11.4896 4.61704 11.0009 4.25684 10.6406C3.92042 10.3042 3.47176 10.105 2.99902 10.0801V6.53809C2.99914 6.08231 3.18064 5.64553 3.50293 5.32324C3.82522 5.00095 4.262 4.81946 4.71777 4.81934H19.2803ZM4.61719 6.4375V8.9082L4.66797 8.9375C5.20555 9.24749 5.65146 9.69414 5.96191 10.2314C6.27236 10.7688 6.43649 11.3784 6.43652 11.999C6.43652 12.6196 6.27236 13.2292 5.96191 13.7666C5.65148 14.3039 5.20554 14.7505 4.66797 15.0605L4.61719 15.0898V17.5605H19.3809V15.0898L19.3301 15.0605C18.7926 14.7505 18.3465 14.3039 18.0361 13.7666C17.7257 13.2292 17.5615 12.6196 17.5615 11.999C17.5616 11.3784 17.7257 10.7688 18.0361 10.2314C18.3466 9.69415 18.7925 9.2475 19.3301 8.9375L19.3809 8.9082V6.4375H4.61719ZM14.2744 13.0107C14.9739 13.0107 15.538 13.5749 15.5381 14.2744C15.5381 14.974 14.974 15.5381 14.2744 15.5381C13.5749 15.5381 13.0107 14.974 13.0107 14.2744C13.0108 13.5749 13.5749 13.0107 14.2744 13.0107ZM15.4961 9.45117L9.45117 15.4971L8.50195 14.5479L14.5479 8.50195L15.4961 9.45117ZM9.72363 8.45996C10.4231 8.45996 10.9881 9.02423 10.9883 9.72363C10.9883 10.4232 10.4232 10.9883 9.72363 10.9883C9.02418 10.9882 8.45996 10.4231 8.45996 9.72363C8.46012 9.0243 9.02428 8.46007 9.72363 8.45996Z" fill="black"/>
</svg>
