<svg width="24" height="24" viewBox="0 0 24 24" fill="none" xmlns="http://www.w3.org/2000/svg">
<g clip-path="url(#clip0_1_573)">
<path d="M20.25 10.5H19.5V7.5C19.5 7.30109 19.421 7.11032 19.2803 6.96967C19.1397 6.82902 18.9489 6.75 18.75 6.75H15.75V4.5C15.75 4.30109 15.671 4.11032 15.5303 3.96967C15.3897 3.82902 15.1989 3.75 15 3.75H5.25C4.65343 3.75053 4.08144 3.98775 3.65959 4.40959C3.23775 4.83144 3.00053 5.40343 3 6L3 18C3.00053 18.5966 3.23775 19.1686 3.65959 19.5904C4.08144 20.0122 4.65343 20.2495 5.25 20.25H18.75C18.9489 20.25 19.1397 20.171 19.2803 20.0303C19.421 19.8897 19.5 19.6989 19.5 19.5V16.5H20.25C20.4489 16.5 20.6397 16.421 20.7803 16.2803C20.921 16.1397 21 15.9489 21 15.75V11.25C21 11.0511 20.921 10.8603 20.7803 10.7197C20.6397 10.579 20.4489 10.5 20.25 10.5ZM5.25 5.25H14.25V6.75H5.25C5.05109 6.75 4.86032 6.67098 4.71967 6.53033C4.57902 6.38968 4.5 6.19891 4.5 6C4.5 5.80109 4.57902 5.61032 4.71967 5.46967C4.86032 5.32902 5.05109 5.25 5.25 5.25ZM18 18.75H5.25C5.05117 18.7497 4.86056 18.6706 4.71996 18.53C4.57937 18.3894 4.50026 18.1988 4.5 18V8.121C4.74224 8.20087 4.99499 8.24434 5.25 8.25H18V10.5H17.25C16.4544 10.5 15.6913 10.8161 15.1287 11.3787C14.5661 11.9413 14.25 12.7044 14.25 13.5C14.25 14.2956 14.5661 15.0587 15.1287 15.6213C15.6913 16.1839 16.4544 16.5 17.25 16.5H18V18.75ZM19.5 15H17.25C16.8522 15 16.4706 14.842 16.1893 14.5607C15.908 14.2794 15.75 13.8978 15.75 13.5C15.75 13.1022 15.908 12.7206 16.1893 12.4393C16.4706 12.158 16.8522 12 17.25 12H19.5V15Z" fill="black"/>
<path d="M17.063 13.876C17.3739 13.876 17.626 13.6239 17.626 13.313C17.626 13.0021 17.3739 12.75 17.063 12.75C16.7521 12.75 16.5 13.0021 16.5 13.313C16.5 13.6239 16.7521 13.876 17.063 13.876Z" fill="black"/>
</g>
<defs>
<clipPath id="clip0_1_573">
<rect width="24" height="24" fill="white"/>
</clipPath>
</defs>
</svg>
