<svg width="18" height="14" viewBox="0 0 18 14" fill="none" xmlns="http://www.w3.org/2000/svg">
<path d="M17.6291 2.672C17.4217 1.90087 16.8137 1.29299 16.0427 1.08535C14.6341 0.699951 8.9998 0.699951 8.9998 0.699951C8.9998 0.699951 3.36567 0.699951 1.95711 1.07074C1.20092 1.27816 0.578102 1.90098 0.370679 2.672C0 4.08045 0 7.00139 0 7.00139C0 7.00139 0 9.93705 0.370679 11.3308C0.578321 12.1018 1.18609 12.7097 1.95722 12.9173C3.3805 13.3028 9.00002 13.3028 9.00002 13.3028C9.00002 13.3028 14.6341 13.3028 16.0427 12.932C16.8138 12.7245 17.4217 12.1166 17.6294 11.3456C17.9999 9.93705 17.9999 7.01622 17.9999 7.01622C17.9999 7.01622 18.0148 4.08045 17.6291 2.672ZM7.20595 9.69986V4.30292L11.8912 7.00139L7.20595 9.69986Z" fill="#666666"/>
</svg>
